<svg width="501" height="400" viewBox="0 0 501 400" fill="none" xmlns="http://www.w3.org/2000/svg">
<ellipse opacity="0.5" cx="90" cy="21.5" rx="90" ry="21.5" transform="matrix(1 0 0 -1 156 353)" fill="#39B293"/>
<path d="M446.763 122.936C449.104 125.279 449.104 129.075 446.763 131.418L249.621 328.75C247.277 331.096 243.474 331.096 241.13 328.749L135.237 222.695C132.896 220.352 132.898 216.555 135.24 214.213L180.88 168.582C183.224 166.238 187.025 166.239 189.367 168.584L241.13 220.397C243.474 222.743 247.276 222.743 249.62 220.397L392.63 77.2488C394.974 74.9029 398.776 74.9029 401.12 77.2488L446.763 122.936Z" fill="#39BC7F"/>
</svg>
