<svg width="197" height="136" viewBox="0 0 197 136" fill="none" xmlns="http://www.w3.org/2000/svg">
<g clip-path="url(#clip0_9629_21821)">
<path d="M173.974 15.1699L117.337 70.7806L194.191 90.6221L173.974 15.1699Z" fill="#76768A"/>
<rect x="38.145" y="42.2344" width="99.1444" height="96.1401" rx="4.15812" transform="rotate(-15 38.145 42.2344)" fill="#C7C7D1"/>
<mask id="path-3-outside-1_9629_21821" maskUnits="userSpaceOnUse" x="10.024" y="3.56509" width="143.42" height="187.261" fill="black">
<rect fill="white" x="10.024" y="3.56509" width="143.42" height="187.261"/>
<path d="M12.4735 31.8965L108.24 6.23602L150.093 162.435L54.3269 188.095L12.4735 31.8965Z"/>
</mask>
<path d="M12.4735 31.8965L11.9559 29.9646L10.024 30.4823L10.5417 32.4141L12.4735 31.8965ZM108.24 6.23602L110.172 5.71838L109.654 3.78653L107.722 4.30416L108.24 6.23602ZM150.093 162.435L150.611 164.367L152.543 163.849L152.025 161.917L150.093 162.435ZM54.3269 188.095L52.395 188.613L52.9127 190.545L54.8445 190.027L54.3269 188.095ZM12.4735 31.8965L12.9911 33.8283L108.757 8.16787L108.24 6.23602L107.722 4.30416L11.9559 29.9646L12.4735 31.8965ZM108.24 6.23602L106.308 6.75365L148.161 162.953L150.093 162.435L152.025 161.917L110.172 5.71838L108.24 6.23602ZM150.093 162.435L149.575 160.503L53.8093 186.164L54.3269 188.095L54.8445 190.027L150.611 164.367L150.093 162.435ZM54.3269 188.095L56.2587 187.578L14.4054 31.3788L12.4735 31.8965L10.5417 32.4141L52.395 188.613L54.3269 188.095Z" fill="#76768A" mask="url(#path-3-outside-1_9629_21821)"/>
</g>
<circle cx="37.9468" cy="37.9468" r="37.9468" fill="white"/>
<path fill-rule="evenodd" clip-rule="evenodd" d="M20.5231 52.4743C19.3516 53.6459 19.3516 55.5454 20.5231 56.7169C21.6947 57.8885 23.5942 57.8885 24.7658 56.7169L39.4011 42.0816L53.6352 56.3157C54.8068 57.4873 56.7063 57.4873 57.8778 56.3157C59.0494 55.1441 59.0494 53.2446 57.8778 52.0731L43.6437 37.839L58.12 23.3627C59.2915 22.1912 59.2915 20.2917 58.12 19.1201C56.9484 17.9485 55.0489 17.9485 53.8773 19.1201L39.4011 33.5963L24.5236 18.7189C23.3521 17.5473 21.4526 17.5473 20.281 18.7189C19.1094 19.8905 19.1094 21.79 20.281 22.9615L35.1585 37.839L20.5231 52.4743Z" fill="#050521" fill-opacity="0.6"/>
<defs>
<clipPath id="clip0_9629_21821">
<rect width="138.208" height="96.1401" fill="white" transform="translate(38.1459 42.2344) rotate(-15)"/>
</clipPath>
</defs>
</svg>
