<svg width="245" height="182" viewBox="0 0 245 182" fill="none" xmlns="http://www.w3.org/2000/svg">
<path d="M206.375 0H38.625C33.5711 0.00590047 28.726 2.00518 25.1523 5.55928C21.5787 9.11338 19.5684 13.9321 19.5625 18.9583V147.875C19.5624 148.373 19.6609 148.866 19.8524 149.326C20.044 149.786 20.3248 150.204 20.6789 150.556C21.0329 150.909 21.4533 151.188 21.9159 151.378C22.3785 151.569 22.8743 151.667 23.375 151.667H221.625C222.126 151.667 222.622 151.569 223.084 151.379C223.547 151.188 223.967 150.909 224.322 150.557C224.676 150.205 224.956 149.786 225.148 149.326C225.339 148.866 225.438 148.373 225.438 147.875V18.9583C225.432 13.9321 223.421 9.11338 219.848 5.55928C216.274 2.00518 211.429 0.00590047 206.375 0Z" fill="#A2C8FF"/>
<path d="M206.375 15.1667H38.625C36.5194 15.1667 34.8125 16.8643 34.8125 18.9583V125.125C34.8125 127.219 36.5194 128.917 38.625 128.917H206.375C208.481 128.917 210.188 127.219 210.188 125.125V18.9583C210.188 16.8643 208.481 15.1667 206.375 15.1667Z" fill="white"/>
<path d="M65.3125 53.0833V106.167H122.5H179.688V53.0833H65.3125Z" fill="#EFAA5E"/>
<path d="M122.5 53.0833H179.688V106.167H122.5V53.0833Z" fill="#D68345"/>
<path d="M233.062 144.083H11.9375C5.62074 144.083 0.5 149.176 0.5 155.458V170.625C0.5 176.907 5.62074 182 11.9375 182H233.062C239.379 182 244.5 176.907 244.5 170.625V155.458C244.5 149.176 239.379 144.083 233.062 144.083Z" fill="#A7CBFF"/>
<path d="M198.75 144.083H46.25V163.042C46.25 164.047 46.6517 165.012 47.3667 165.723C48.0816 166.434 49.0514 166.833 50.0625 166.833H194.938C195.949 166.833 196.918 166.434 197.633 165.723C198.348 165.012 198.75 164.047 198.75 163.042V144.083Z" fill="#819DE5"/>
<path d="M164.438 91C133.938 91 122.5 106.167 122.5 106.167V53.0833C122.5 53.0833 133.938 37.9167 164.438 37.9167V91Z" fill="#EFAA5E"/>
<path d="M133.941 61.5405C133.086 61.5411 132.255 61.2554 131.582 60.7294C130.91 60.2033 130.434 59.4675 130.233 58.6404C130.032 57.8133 130.117 56.9429 130.473 56.1693C130.83 55.3957 131.438 54.764 132.199 54.3756C138.561 51.2039 145.412 49.1138 152.468 48.1921C153.469 48.0516 154.485 48.3125 155.293 48.9174C156.101 49.5222 156.634 50.4214 156.775 51.4172C156.916 52.413 156.654 53.4238 156.046 54.2272C155.438 55.0307 154.534 55.5609 153.532 55.7014C147.318 56.5061 141.283 58.3383 135.676 61.1223C135.14 61.3977 134.545 61.5412 133.941 61.5405Z" fill="#D68345"/>
<path d="M133.941 74.8114C133.086 74.812 132.255 74.5262 131.582 74.0002C130.91 73.4741 130.434 72.7384 130.233 71.9112C130.032 71.0841 130.117 70.2137 130.473 69.4401C130.83 68.6666 131.438 68.0348 132.199 67.6464C138.561 64.4747 145.412 62.3846 152.468 61.4629C152.964 61.388 153.471 61.4124 153.957 61.5347C154.444 61.657 154.902 61.8747 155.303 62.1751C155.704 62.4755 156.041 62.8525 156.294 63.284C156.547 63.7155 156.71 64.1928 156.775 64.6881C156.845 65.1811 156.817 65.6831 156.692 66.1652C156.567 66.6474 156.347 67.1003 156.046 67.4981C155.745 67.8959 155.368 68.2309 154.937 68.4838C154.505 68.7367 154.028 68.9027 153.532 68.9722C147.318 69.777 141.283 71.6092 135.676 74.3931C135.14 74.6686 134.545 74.812 133.941 74.8114Z" fill="#D68345"/>
<path d="M133.941 88.0822C133.086 88.0828 132.255 87.7971 131.582 87.271C130.91 86.745 130.434 86.0092 130.233 85.1821C130.032 84.3549 130.117 83.4846 130.473 82.711C130.83 81.9374 131.438 81.3056 132.199 80.9173C138.561 77.7455 145.412 75.6555 152.468 74.7337C153.469 74.5933 154.485 74.8542 155.293 75.459C156.101 76.0639 156.634 76.9631 156.775 77.9589C156.916 78.9547 156.654 79.9655 156.046 80.7689C155.438 81.5723 154.534 82.1026 153.532 82.243C147.318 83.0478 141.283 84.88 135.676 87.6639C135.14 87.9394 134.545 88.0828 133.941 88.0822Z" fill="#D68345"/>
<path d="M80.5625 91C111.062 91 122.5 106.167 122.5 106.167V53.0833C122.5 53.0833 111.062 37.9167 80.5625 37.9167V91Z" fill="#FFD07B"/>
<path d="M111.059 61.5405C110.454 61.5407 109.859 61.3973 109.322 61.1221C103.717 58.3374 97.6826 56.5052 91.4694 55.7012C90.9696 55.6366 90.4877 55.474 90.0515 55.223C89.6153 54.9719 89.2335 54.6374 88.9281 54.2386C88.6228 53.8399 88.3999 53.3849 88.2725 52.9C88.1451 52.4151 88.1156 51.9098 88.1857 51.4135C88.2558 50.9172 88.4242 50.4396 88.6811 50.0084C88.938 49.5772 89.2784 49.2009 89.6824 48.9013C90.0864 48.6018 90.5462 48.3848 91.0351 48.2631C91.5239 48.1414 92.0322 48.1172 92.5305 48.1921C99.5875 49.1145 106.44 51.2046 112.803 54.3758C113.564 54.7645 114.172 55.3965 114.528 56.1702C114.884 56.9438 114.968 57.8141 114.767 58.6411C114.565 59.4681 114.09 60.2037 113.418 60.7296C112.745 61.2556 111.914 61.5411 111.059 61.5405Z" fill="#EFAA5E"/>
<path d="M111.059 74.8114C110.454 74.8115 109.859 74.6681 109.322 74.393C103.717 71.6083 97.6826 69.776 91.4694 68.972C90.9696 68.9074 90.4877 68.7449 90.0515 68.4938C89.6153 68.2428 89.2335 67.9082 88.9281 67.5095C88.6228 67.1107 88.3999 66.6558 88.2725 66.1708C88.1451 65.6859 88.1156 65.1807 88.1857 64.6843C88.2558 64.188 88.4242 63.7104 88.6811 63.2792C88.938 62.848 89.2784 62.4717 89.6824 62.1722C90.0864 61.8726 90.5462 61.6557 91.0351 61.5339C91.5239 61.4122 92.0322 61.3881 92.5305 61.4629C99.5875 62.3853 106.44 64.4754 112.803 67.6466C113.564 68.0353 114.172 68.6674 114.528 69.441C114.884 70.2146 114.968 71.0849 114.767 71.9119C114.565 72.7389 114.09 73.4745 113.418 74.0005C112.745 74.5264 111.914 74.8119 111.059 74.8114Z" fill="#EFAA5E"/>
<path d="M111.059 88.0822C110.454 88.0824 109.859 87.9389 109.322 87.6638C103.717 84.8791 97.6826 83.0468 91.4694 82.2429C90.9696 82.1782 90.4877 82.0157 90.0515 81.7646C89.6153 81.5136 89.2335 81.179 88.9281 80.7803C88.6228 80.3816 88.3999 79.9266 88.2725 79.4417C88.1451 78.9567 88.1156 78.4515 88.1857 77.9552C88.2558 77.4588 88.4242 76.9813 88.6811 76.55C88.938 76.1188 89.2784 75.7426 89.6824 75.443C90.0864 75.1434 90.5462 74.9265 91.0351 74.8048C91.5239 74.683 92.0322 74.6589 92.5305 74.7337C99.5875 75.6562 106.44 77.7462 112.803 80.9174C113.564 81.3062 114.172 81.9382 114.528 82.7118C114.884 83.4855 114.968 84.3558 114.767 85.1828C114.565 86.0098 114.09 86.7454 113.418 87.2713C112.745 87.7972 111.914 88.0827 111.059 88.0822Z" fill="#EFAA5E"/>
</svg>
