<svg width="91" height="48" viewBox="0 0 91 48" fill="none" xmlns="http://www.w3.org/2000/svg">
<path d="M20.0755 11.8V16.444H9.09548V21.772C9.57548 21.22 10.1755 20.788 10.8955 20.476C11.6155 20.14 12.5155 19.972 13.5955 19.972C15.0595 19.972 16.2955 20.224 17.3035 20.728C18.3355 21.208 19.1755 21.856 19.8235 22.672C20.4955 23.488 20.9875 24.388 21.2995 25.372C21.6115 26.356 21.7675 27.328 21.7675 28.288C21.7675 30.112 21.3955 31.696 20.6515 33.04C19.9075 34.384 18.8515 35.428 17.4835 36.172C16.1155 36.892 14.4835 37.252 12.5875 37.252C10.6675 37.252 9.02348 36.928 7.65548 36.28C6.28748 35.608 5.21948 34.708 4.45148 33.58C3.70748 32.428 3.27548 31.12 3.15548 29.656H8.62748C8.79548 30.424 9.19148 31.096 9.81548 31.672C10.4635 32.224 11.3515 32.5 12.4795 32.5C13.3195 32.5 14.0035 32.332 14.5315 31.996C15.0595 31.66 15.4555 31.18 15.7195 30.556C15.9835 29.932 16.1155 29.188 16.1155 28.324C16.1155 27.052 15.7915 26.092 15.1435 25.444C14.5195 24.796 13.6075 24.472 12.4075 24.472C11.4955 24.472 10.7395 24.724 10.1395 25.228C9.53948 25.708 9.14348 26.284 8.95148 26.956H3.51548V11.8H20.0755ZM24.1185 24.4C24.1185 22.504 24.2865 20.764 24.6225 19.18C24.9585 17.596 25.5105 16.24 26.2785 15.112C27.0465 13.984 28.0665 13.108 29.3385 12.484C30.6105 11.86 32.1825 11.548 34.0545 11.548C35.9025 11.548 37.4625 11.86 38.7345 12.484C40.0065 13.108 41.0265 13.984 41.7945 15.112C42.5625 16.24 43.1145 17.596 43.4505 19.18C43.7865 20.764 43.9545 22.504 43.9545 24.4C43.9545 26.32 43.7865 28.072 43.4505 29.656C43.1145 31.24 42.5625 32.596 41.7945 33.724C41.0265 34.852 40.0065 35.728 38.7345 36.352C37.4625 36.952 35.9025 37.252 34.0545 37.252C32.1825 37.252 30.6105 36.952 29.3385 36.352C28.0665 35.728 27.0465 34.852 26.2785 33.724C25.5105 32.596 24.9585 31.24 24.6225 29.656C24.2865 28.072 24.1185 26.32 24.1185 24.4ZM38.3025 24.4C38.3025 23.344 38.2545 22.336 38.1585 21.376C38.0865 20.392 37.9065 19.528 37.6185 18.784C37.3545 18.016 36.9345 17.416 36.3585 16.984C35.8065 16.528 35.0385 16.3 34.0545 16.3C33.0705 16.3 32.2905 16.528 31.7145 16.984C31.1385 17.416 30.7065 18.016 30.4185 18.784C30.1545 19.528 29.9745 20.392 29.8785 21.376C29.8065 22.336 29.7705 23.344 29.7705 24.4C29.7705 25.528 29.8065 26.584 29.8785 27.568C29.9745 28.528 30.1545 29.38 30.4185 30.124C30.7065 30.844 31.1385 31.42 31.7145 31.852C32.2905 32.284 33.0705 32.5 34.0545 32.5C35.0385 32.5 35.8065 32.284 36.3585 31.852C36.9345 31.42 37.3545 30.844 37.6185 30.124C37.9065 29.38 38.0865 28.528 38.1585 27.568C38.2545 26.584 38.3025 25.528 38.3025 24.4ZM46.4174 24.4C46.4174 22.504 46.5854 20.764 46.9214 19.18C47.2574 17.596 47.8094 16.24 48.5774 15.112C49.3454 13.984 50.3654 13.108 51.6374 12.484C52.9094 11.86 54.4814 11.548 56.3534 11.548C58.2014 11.548 59.7614 11.86 61.0334 12.484C62.3054 13.108 63.3254 13.984 64.0934 15.112C64.8614 16.24 65.4134 17.596 65.7494 19.18C66.0854 20.764 66.2534 22.504 66.2534 24.4C66.2534 26.32 66.0854 28.072 65.7494 29.656C65.4134 31.24 64.8614 32.596 64.0934 33.724C63.3254 34.852 62.3054 35.728 61.0334 36.352C59.7614 36.952 58.2014 37.252 56.3534 37.252C54.4814 37.252 52.9094 36.952 51.6374 36.352C50.3654 35.728 49.3454 34.852 48.5774 33.724C47.8094 32.596 47.2574 31.24 46.9214 29.656C46.5854 28.072 46.4174 26.32 46.4174 24.4ZM60.6014 24.4C60.6014 23.344 60.5534 22.336 60.4574 21.376C60.3854 20.392 60.2054 19.528 59.9174 18.784C59.6534 18.016 59.2334 17.416 58.6574 16.984C58.1054 16.528 57.3374 16.3 56.3534 16.3C55.3694 16.3 54.5894 16.528 54.0134 16.984C53.4374 17.416 53.0054 18.016 52.7174 18.784C52.4534 19.528 52.2734 20.392 52.1774 21.376C52.1054 22.336 52.0694 23.344 52.0694 24.4C52.0694 25.528 52.1054 26.584 52.1774 27.568C52.2734 28.528 52.4534 29.38 52.7174 30.124C53.0054 30.844 53.4374 31.42 54.0134 31.852C54.5894 32.284 55.3694 32.5 56.3534 32.5C57.3374 32.5 58.1054 32.284 58.6574 31.852C59.2334 31.42 59.6534 30.844 59.9174 30.124C60.2054 29.38 60.3854 28.528 60.4574 27.568C60.5534 26.584 60.6014 25.528 60.6014 24.4ZM80.4523 15.22V33.58H75.1243V15.22H80.4523ZM68.6083 21.952H86.9683V26.884H68.6083V21.952Z" fill="#1F1F2F"/>
</svg>
