<svg width="20" height="20" viewBox="0 0 20 20" fill="none" xmlns="http://www.w3.org/2000/svg">
<mask id="mask0_5452_14540" style="mask-type:alpha" maskUnits="userSpaceOnUse" x="0" y="0" width="20" height="20">
<rect width="20" height="20" fill="#D9D9D9"/>
</mask>
<g mask="url(#mask0_5452_14540)">
<path d="M13.125 10.7513H4.74958C4.53722 10.7513 4.35917 10.6798 4.21542 10.5369C4.07181 10.394 4 10.2169 4 10.0057C4 9.79443 4.07181 9.61589 4.21542 9.47005C4.35917 9.32422 4.53722 9.2513 4.74958 9.2513H13.125L9.45396 5.58026C9.3041 5.4304 9.22917 5.25477 9.22917 5.05339C9.22917 4.852 9.30556 4.67158 9.45833 4.51214C9.61111 4.36602 9.78819 4.29297 9.98958 4.29297C10.191 4.29297 10.3667 4.36811 10.5169 4.51839L15.4708 9.47859C15.5458 9.55373 15.6007 9.63512 15.6354 9.72276C15.6701 9.8104 15.6875 9.90436 15.6875 10.0046C15.6875 10.1048 15.6701 10.1987 15.6354 10.2865C15.6007 10.3741 15.5486 10.4527 15.4792 10.5221L10.5208 15.4805C10.3681 15.6332 10.1944 15.7062 10 15.6992C9.80556 15.6923 9.63194 15.6157 9.47917 15.4696C9.32639 15.3102 9.25 15.1286 9.25 14.9248C9.25 14.7212 9.32639 14.5453 9.47917 14.3971L13.125 10.7513Z" fill="currentColor"/>
</g>
</svg>
