<svg width="20" height="20" viewBox="0 0 20 20" fill="none" xmlns="http://www.w3.org/2000/svg">
<mask id="mask0_5452_14542" style="mask-type:alpha" maskUnits="userSpaceOnUse" x="0" y="0" width="20" height="20">
<rect width="20" height="20" fill="#D9D9D9"/>
</mask>
<g mask="url(#mask0_5452_14542)">
<path d="M9.24915 13.125V4.74958C9.24915 4.53722 9.32061 4.35917 9.46353 4.21542C9.60644 4.07181 9.78353 4 9.99478 4C10.206 4 10.3846 4.07181 10.5304 4.21542C10.6762 4.35917 10.7492 4.53722 10.7492 4.74958V13.125L14.4202 9.45396C14.5701 9.3041 14.7457 9.22917 14.9471 9.22917C15.1485 9.22917 15.3289 9.30556 15.4883 9.45833C15.6344 9.61111 15.7075 9.78819 15.7075 9.98958C15.7075 10.191 15.6323 10.3667 15.4821 10.5169L10.5219 15.4708C10.4467 15.5458 10.3653 15.6007 10.2777 15.6354C10.1901 15.6701 10.0961 15.6875 9.99582 15.6875C9.89568 15.6875 9.80172 15.6701 9.71394 15.6354C9.6263 15.6007 9.54776 15.5486 9.47832 15.4792L4.51998 10.5208C4.36721 10.3681 4.29429 10.191 4.30123 9.98958C4.30818 9.78819 4.38471 9.61111 4.53082 9.45833C4.69026 9.30556 4.87186 9.22917 5.07561 9.22917C5.27922 9.22917 5.45512 9.30556 5.60332 9.45833L9.24915 13.125Z" fill="#1F1F2F"/>
</g>
</svg>
