<svg width="20" height="20" viewBox="0 0 20 20" fill="none" xmlns="http://www.w3.org/2000/svg">
<mask id="mask0_5452_14543" style="mask-type:alpha" maskUnits="userSpaceOnUse" x="0" y="0" width="20" height="20">
<rect width="20" height="20" fill="#D9D9D9"/>
</mask>
<g mask="url(#mask0_5452_14543)">
<path d="M6.875 10.7513L10.546 14.4223C10.6959 14.5722 10.7708 14.7478 10.7708 14.9492C10.7708 15.1506 10.6944 15.331 10.5417 15.4905C10.3889 15.6366 10.2118 15.7096 10.0104 15.7096C9.80903 15.7096 9.63326 15.6345 9.48313 15.4842L4.52917 10.524C4.45417 10.4489 4.39931 10.3675 4.36458 10.2798C4.32986 10.1922 4.3125 10.0982 4.3125 9.99797C4.3125 9.89783 4.32986 9.80387 4.36458 9.71609C4.39931 9.62846 4.45139 9.54991 4.52083 9.48047L9.47917 4.52214C9.63194 4.36936 9.81021 4.29297 10.014 4.29297C10.2176 4.29297 10.3935 4.36936 10.5417 4.52214C10.6944 4.67033 10.7708 4.84623 10.7708 5.04984C10.7708 5.25359 10.6956 5.43075 10.545 5.5813L6.875 9.2513H15.2504C15.4628 9.2513 15.6408 9.32276 15.7846 9.46568C15.9282 9.60859 16 9.78568 16 9.99693C16 10.2082 15.9282 10.3867 15.7846 10.5326C15.6408 10.6784 15.4628 10.7513 15.2504 10.7513H6.875Z" fill="currentColor"/>
</g>
</svg>
