<svg width="20" height="20" viewBox="0 0 20 20" fill="none" xmlns="http://www.w3.org/2000/svg">
<mask id="mask0_5452_14541" style="mask-type:alpha" maskUnits="userSpaceOnUse" x="0" y="0" width="20" height="20">
<rect width="20" height="20" fill="#D9D9D9"/>
</mask>
<g mask="url(#mask0_5452_14541)">
<path d="M9.2513 6.875L5.58026 10.546C5.4304 10.6959 5.25477 10.7708 5.05339 10.7708C4.852 10.7708 4.67158 10.6944 4.51214 10.5417C4.36602 10.3889 4.29297 10.2118 4.29297 10.0104C4.29297 9.80903 4.36811 9.63326 4.51839 9.48313L9.47859 4.52917C9.55373 4.45417 9.63512 4.39931 9.72276 4.36458C9.8104 4.32986 9.90436 4.3125 10.0046 4.3125C10.1048 4.3125 10.1987 4.32986 10.2865 4.36458C10.3741 4.39931 10.4527 4.45139 10.5221 4.52083L15.4805 9.47917C15.6332 9.63194 15.7096 9.80556 15.7096 10C15.7096 10.1944 15.6366 10.3681 15.4905 10.5208C15.331 10.6736 15.1494 10.75 14.9457 10.75C14.7421 10.75 14.5662 10.6736 14.418 10.5208L10.7513 6.875V15.2504C10.7513 15.4628 10.6798 15.6408 10.5369 15.7846C10.394 15.9282 10.2169 16 10.0057 16C9.79443 16 9.61589 15.9282 9.47005 15.7846C9.32422 15.6408 9.2513 15.4628 9.2513 15.2504V6.875Z" fill="#1F1F2F"/>
</g>
</svg>
