<svg width="20" height="20" viewBox="0 0 20 20" fill="none" xmlns="http://www.w3.org/2000/svg">
    <mask id="mask0_5452_14594" style="mask-type:alpha" maskUnits="userSpaceOnUse" x="0" y="0" width="20" height="20">
        <rect width="20" height="20" fill="#D9D9D9"/>
    </mask>
    <g mask="url(#mask0_5452_14594)">
        <path d="M6.84661 13.337C7.0812 13.337 7.2805 13.256 7.44453 13.0939C7.6087 12.932 7.69078 12.7331 7.69078 12.4972V4.35099C7.69078 4.1153 7.61016 3.91641 7.44891 3.75432C7.2878 3.59238 7.08995 3.51141 6.85536 3.51141C6.62092 3.51141 6.42161 3.59238 6.25745 3.75432C6.09342 3.91641 6.01141 4.1153 6.01141 4.35099V12.4972C6.01141 12.7331 6.09196 12.932 6.25307 13.0939C6.41432 13.256 6.61217 13.337 6.84661 13.337ZM5.25141 18.1708C4.57988 18.1708 4.00877 17.9363 3.53807 17.4672C3.06738 16.9982 2.83203 16.4279 2.83203 15.7564V4.27141C2.83203 3.59321 3.06905 3.0171 3.54307 2.54307C4.0171 2.06905 4.59321 1.83203 5.27141 1.83203H12.2622C12.7411 1.83203 13.149 2.0005 13.486 2.33745C13.8229 2.67439 13.9914 3.08231 13.9914 3.5612V13.2622C13.9914 13.7411 13.8229 14.149 13.486 14.486C13.149 14.8229 12.7411 14.9914 12.2622 14.9914H5.25141C5.04224 14.9914 4.86661 15.0629 4.72453 15.2058C4.58245 15.3487 4.51141 15.5258 4.51141 15.737C4.51141 15.9483 4.58245 16.1268 4.72453 16.2727C4.86661 16.4185 5.04224 16.4914 5.25141 16.4914H15.4914V4.17161C15.4914 3.93592 15.572 3.73703 15.7333 3.57495C15.8944 3.413 16.0922 3.33203 16.3268 3.33203C16.5613 3.33203 16.7606 3.413 16.9247 3.57495C17.0888 3.73703 17.1708 3.93592 17.1708 4.17161V16.4416C17.1708 16.9205 17.0023 17.3284 16.6654 17.6654C16.3284 18.0023 15.9205 18.1708 15.4416 18.1708H5.25141Z"
              fill="currentColor"/>
    </g>
</svg>
