<svg width="20" height="20" viewBox="0 0 20 20" fill="none" xmlns="http://www.w3.org/2000/svg">
<mask id="mask0_5452_14556" style="mask-type:alpha" maskUnits="userSpaceOnUse" x="0" y="0" width="20" height="20">
<rect width="20" height="20" fill="#D9D9D9"/>
</mask>
<g mask="url(#mask0_5452_14556)">
<path d="M8.33333 11.2292L13.2292 6.33333C13.4514 6.11111 13.691 6 13.9479 6C14.2049 6 14.4444 6.11111 14.6667 6.33333C14.8889 6.55556 15 6.79514 15 7.05208C15 7.30903 14.8889 7.54861 14.6667 7.77083L9.04167 13.3958C8.83333 13.6042 8.59375 13.7083 8.32292 13.7083C8.05208 13.7083 7.8125 13.6042 7.60417 13.3958L5.33333 11.125C5.11111 10.9028 5 10.6632 5 10.4062C5 10.1493 5.11111 9.90972 5.33333 9.6875C5.55556 9.46528 5.79514 9.35417 6.05208 9.35417C6.30903 9.35417 6.54861 9.46528 6.77083 9.6875L8.33333 11.2292Z" fill="currentColor"/>
</g>
</svg>
