<svg width="20" height="20" viewBox="0 0 20 20" fill="none" xmlns="http://www.w3.org/2000/svg">
<mask id="mask0_11476_3927" style="mask-type:alpha" maskUnits="userSpaceOnUse" x="0" y="0" width="20" height="20">
<rect width="20" height="20" fill="#D9D9D9"/>
</mask>
<g mask="url(#mask0_11476_3927)">
<path d="M17.5003 15C17.2642 15 17.0663 14.9201 16.9066 14.7604C16.7469 14.6007 16.667 14.4028 16.667 14.1667V5.83333C16.667 5.59722 16.7469 5.39931 16.9066 5.23958C17.0663 5.07986 17.2642 5 17.5003 5C17.7364 5 17.9344 5.07986 18.0941 5.23958C18.2538 5.39931 18.3337 5.59722 18.3337 5.83333V14.1667C18.3337 14.4028 18.2538 14.6007 18.0941 14.7604C17.9344 14.9201 17.7364 15 17.5003 15ZM11.8128 10.8333H2.50033C2.26421 10.8333 2.0663 10.7535 1.90658 10.5938C1.74685 10.434 1.66699 10.2361 1.66699 10C1.66699 9.76389 1.74685 9.56597 1.90658 9.40625C2.0663 9.24653 2.26421 9.16667 2.50033 9.16667H11.8128L9.41699 6.75C9.26421 6.59722 9.18435 6.40625 9.17741 6.17708C9.17046 5.94792 9.25033 5.75 9.41699 5.58333C9.56977 5.43056 9.76421 5.35417 10.0003 5.35417C10.2364 5.35417 10.4309 5.43056 10.5837 5.58333L14.417 9.41667C14.5003 9.5 14.5594 9.59028 14.5941 9.6875C14.6288 9.78472 14.6462 9.88889 14.6462 10C14.6462 10.1111 14.6288 10.2153 14.5941 10.3125C14.5594 10.4097 14.5003 10.5 14.417 10.5833L10.5837 14.4167C10.4309 14.5694 10.2399 14.6458 10.0107 14.6458C9.78158 14.6458 9.58366 14.5694 9.41699 14.4167C9.25033 14.25 9.16699 14.0521 9.16699 13.8229C9.16699 13.5938 9.25033 13.3958 9.41699 13.2292L11.8128 10.8333Z" fill="currentColor" fill-opacity="0.6"/>
</g>
</svg>
