<svg width="20" height="20" viewBox="0 0 20 20" fill="none" xmlns="http://www.w3.org/2000/svg">
    <mask id="mask0_5452_14539" style="mask-type:alpha" maskUnits="userSpaceOnUse" x="0" y="0" width="20" height="20">
        <rect width="20" height="20" fill="#D9D9D9"/>
    </mask>
    <g mask="url(#mask0_5452_14539)">
        <path d="M9.99915 11.0638L6.58248 14.4805C6.42971 14.6332 6.2561 14.7062 6.06165 14.6992C5.86721 14.6923 5.6936 14.6124 5.54082 14.4596C5.38804 14.3069 5.31165 14.1298 5.31165 13.9284C5.31165 13.727 5.38804 13.5499 5.54082 13.3971L8.93665 10.0013L5.51998 6.58464C5.36721 6.43186 5.29429 6.25477 5.30123 6.05339C5.30818 5.852 5.38804 5.67491 5.54082 5.52214C5.6936 5.36936 5.87068 5.29297 6.07207 5.29297C6.27346 5.29297 6.45054 5.36936 6.60332 5.52214L9.99915 8.9388L13.4158 5.52214C13.5686 5.36936 13.7457 5.29297 13.9471 5.29297C14.1485 5.29297 14.3255 5.36936 14.4783 5.52214C14.6311 5.67491 14.7075 5.852 14.7075 6.05339C14.7075 6.25477 14.6311 6.43186 14.4783 6.58464L11.0617 10.0013L14.4783 13.418C14.6311 13.5707 14.7075 13.7444 14.7075 13.9388C14.7075 14.1332 14.6311 14.3069 14.4783 14.4596C14.3255 14.6124 14.1485 14.6888 13.9471 14.6888C13.7457 14.6888 13.5686 14.6124 13.4158 14.4596L9.99915 11.0638Z"
              fill="currentColor"/>
    </g>
</svg>
