<svg width="20" height="20" viewBox="0 0 20 20" fill="none" xmlns="http://www.w3.org/2000/svg">
<mask id="mask0_6084_57154" style="mask-type:alpha" maskUnits="userSpaceOnUse" x="0" y="0" width="20" height="20">
<rect width="20" height="20" fill="#D9D9D9"/>
</mask>
<g mask="url(#mask0_6084_57154)">
<path d="M7.09766 12.8886H4.61849C4.33543 12.8886 4.09453 12.7897 3.89578 12.5919C3.69703 12.394 3.59766 12.1541 3.59766 11.8721C3.59766 11.5903 3.69703 11.349 3.89578 11.1482C4.09453 10.9473 4.33543 10.8469 4.61849 10.8469H8.11849C8.40168 10.8469 8.64266 10.9463 8.84141 11.145C9.04002 11.3438 9.13932 11.5847 9.13932 11.8677V15.3677C9.13932 15.6509 9.04043 15.8919 8.84266 16.0907C8.64474 16.2893 8.40481 16.3886 8.12286 16.3886C7.84106 16.3886 7.59974 16.2893 7.39891 16.0907C7.19807 15.8919 7.09766 15.6509 7.09766 15.3677V12.8886ZM12.8985 7.09961H15.3777C15.6607 7.09961 15.9016 7.19857 16.1004 7.39648C16.2991 7.59426 16.3985 7.83412 16.3985 8.11607C16.3985 8.39801 16.2991 8.6394 16.1004 8.84023C15.9016 9.04093 15.6607 9.14128 15.3777 9.14128H11.8777C11.5945 9.14128 11.3535 9.04197 11.1547 8.84336C10.9561 8.64461 10.8568 8.40364 10.8568 8.12044V4.62044C10.8568 4.33739 10.9557 4.09648 11.1535 3.89773C11.3514 3.69898 11.5913 3.59961 11.8733 3.59961C12.1551 3.59961 12.3964 3.69898 12.5972 3.89773C12.7981 4.09648 12.8985 4.33739 12.8985 4.62044V7.09961Z" fill="currentColor"/>
</g>
</svg>
