<svg width="20" height="20" viewBox="0 0 20 20" fill="none" xmlns="http://www.w3.org/2000/svg">
<mask id="mask0_5452_14582" style="mask-type:alpha" maskUnits="userSpaceOnUse" x="-1" y="0" width="21" height="21">
<rect x="-0.5" y="0.431641" width="20" height="20" fill="#D9D9D9"/>
</mask>
<g mask="url(#mask0_5452_14582)">
<path d="M3.0612 16.6005C2.59203 16.6005 2.18655 16.4296 1.84474 16.0878C1.50293 15.746 1.33203 15.3405 1.33203 14.8713V5.99089C1.33203 5.52172 1.50293 5.11623 1.84474 4.77443C2.18655 4.43262 2.59203 4.26172 3.0612 4.26172H15.9416C16.4247 4.26172 16.8336 4.43262 17.1685 4.77443C17.5034 5.11623 17.6708 5.52172 17.6708 5.99089V14.8713C17.6708 15.3405 17.5034 15.746 17.1685 16.0878C16.8336 16.4296 16.4247 16.6005 15.9416 16.6005H3.0612ZM3.0612 10.4161H15.9416V7.41609H3.0612V10.4161Z" fill="#1C1B1F"/>
</g>
</svg>
