<svg width="40" height="40" viewBox="0 0 40 40" fill="none" xmlns="http://www.w3.org/2000/svg">
<path d="M25.1763 5.07267C27.8512 6.12307 30.1817 7.8961 31.9076 10.1939C33.6334 12.4917 34.6869 15.2239 34.9503 18.0855C35.2138 20.9472 34.6769 23.8258 33.3995 26.4001C32.1221 28.9744 30.1546 31.1431 27.7164 32.6642C25.2782 34.1853 22.4653 34.999 19.5916 35.0144C16.7178 35.0299 13.8963 34.2465 11.4419 32.7517C8.98749 31.2569 6.99671 29.1095 5.69172 26.5491C4.38674 23.9888 3.81888 21.1161 4.05152 18.2518" stroke="#1F1F2F" stroke-width="8" stroke-linecap="round"/>
<path d="M17.1152 4.18528C15.0221 4.51209 13.0181 5.26431 11.2269 6.39552C9.43575 7.52673 7.89534 9.01295 6.70072 10.7625" stroke="#242442" stroke-opacity="0.1" stroke-width="8" stroke-linecap="round"/>
</svg>
