<svg width="20" height="20" viewBox="0 0 20 20" fill="none" xmlns="http://www.w3.org/2000/svg">
<mask id="mask0_5452_14550" style="mask-type:alpha" maskUnits="userSpaceOnUse" x="0" y="0" width="20" height="20">
<rect width="20" height="20" fill="#D9D9D9"/>
</mask>
<g mask="url(#mask0_5452_14550)">
<path d="M4.35248 17C3.98052 17 3.66211 16.8633 3.39727 16.59C3.13242 16.3167 3 15.9881 3 15.6042V4.39583C3 4.01194 3.13242 3.68333 3.39727 3.41C3.66211 3.13667 3.98052 3 4.35248 3H15.2127C15.5847 3 15.9031 3.13667 16.168 3.41C16.4328 3.68333 16.5652 4.01194 16.5652 4.39583V15.6042C16.5652 15.9881 16.4328 16.3167 16.168 16.59C15.9031 16.8633 15.5847 17 15.2127 17H4.35248ZM6.87578 15.5V4.5H4.45342V15.5H6.87578ZM8.32919 15.5H15.1118V4.5H8.32919V15.5Z" fill="#1F1F2F"/>
</g>
</svg>
