<svg width="20" height="20" viewBox="0 0 20 20" fill="none" xmlns="http://www.w3.org/2000/svg">
<mask id="mask0_5452_14574" style="mask-type:alpha" maskUnits="userSpaceOnUse" x="0" y="0" width="21" height="21">
<rect x="0.179688" y="0.119141" width="20" height="20" fill="#D9D9D9"/>
</mask>
<g mask="url(#mask0_5452_14574)">
<path d="M9.72573 11.8222L6.65031 8.74537C6.60281 8.69787 6.56719 8.64696 6.54344 8.59266C6.51969 8.53835 6.50781 8.48356 6.50781 8.42828C6.50781 8.31773 6.54802 8.21939 6.62844 8.13328C6.70885 8.04703 6.81358 8.00391 6.9426 8.00391H13.4201C13.5491 8.00391 13.6539 8.04807 13.7343 8.13641C13.8147 8.2246 13.8549 8.32536 13.8549 8.4387C13.8549 8.45925 13.8074 8.5612 13.7124 8.74453L10.637 11.8222C10.5748 11.8845 10.5031 11.9311 10.422 11.9622C10.341 11.9934 10.2608 12.0089 10.1814 12.0089C10.1019 12.0089 10.0217 11.9934 9.94073 11.9622C9.85962 11.9311 9.78795 11.8845 9.72573 11.8222Z" fill="#1F1F2F"/>
</g>
</svg>
