<svg width="20" height="20" viewBox="0 0 20 20" fill="none" xmlns="http://www.w3.org/2000/svg">
    <mask id="mask0_5452_14579" style="mask-type:alpha" maskUnits="userSpaceOnUse" x="0" y="0" width="20" height="20">
        <rect width="20" height="20" fill="#D9D9D9"/>
    </mask>
    <g mask="url(#mask0_5452_14579)">
        <path d="M3.5612 16.1708C3.08231 16.1708 2.67439 16.0022 2.33745 15.6652C2.0005 15.3281 1.83203 14.9199 1.83203 14.4408V5.55537C1.83203 5.0762 2.0005 4.66918 2.33745 4.33432C2.67439 3.99946 3.08231 3.83203 3.5612 3.83203H16.4416C16.9205 3.83203 17.3284 4.00057 17.6654 4.33766C18.0023 4.67474 18.1708 5.08286 18.1708 5.56203V14.4474C18.1708 14.9266 18.0023 15.3336 17.6654 15.6685C17.3284 16.0034 16.9205 16.1708 16.4416 16.1708H3.5612ZM10.0014 11.0866C10.0775 11.0866 10.1551 11.0745 10.2341 11.0504C10.3133 11.0262 10.3893 10.9899 10.462 10.9416L16.0577 7.71474C16.172 7.6453 16.2645 7.54696 16.3354 7.41974C16.4062 7.29266 16.4416 7.15217 16.4416 6.99828C16.4416 6.68134 16.3037 6.44384 16.0279 6.28578C15.752 6.12759 15.4679 6.13321 15.1754 6.30266L10.0014 9.29036L4.84828 6.32349C4.56453 6.15738 4.27904 6.14793 3.99182 6.29516C3.70474 6.44238 3.5612 6.67675 3.5612 6.99828C3.5612 7.15036 3.60009 7.2896 3.67786 7.41599C3.75564 7.54238 3.85168 7.64196 3.96599 7.71474L9.56161 10.9416C9.628 10.9899 9.69724 11.0262 9.76932 11.0504C9.84127 11.0745 9.91863 11.0866 10.0014 11.0866Z"
              fill="currentColor"/>
    </g>
</svg>
