<svg width="20" height="20" viewBox="0 0 20 20" fill="none" xmlns="http://www.w3.org/2000/svg">
    <mask id="mask0_7172_89002" style="mask-type:alpha" maskUnits="userSpaceOnUse" x="0" y="0" width="20" height="20">
        <rect width="20" height="20" fill="#D9D9D9"/>
    </mask>
    <g mask="url(#mask0_7172_89002)">
        <path d="M9.99578 14.1693C10.2477 14.1693 10.4607 14.0841 10.6347 13.9137C10.8088 13.7434 10.8958 13.5323 10.8958 13.2804C10.8958 13.0286 10.8106 12.8147 10.6404 12.6389C10.4699 12.4632 10.2588 12.3754 10.007 12.3754C9.75509 12.3754 9.5421 12.4617 9.36807 12.6345C9.19405 12.8073 9.10703 13.0197 9.10703 13.2716C9.10703 13.5234 9.19217 13.736 9.36245 13.9093C9.53286 14.0827 9.74398 14.1693 9.99578 14.1693ZM9.99703 11.0099C10.2381 11.0099 10.4433 10.9264 10.6124 10.7593C10.7815 10.5924 10.866 10.3877 10.866 10.1454V6.75994C10.866 6.51758 10.7829 6.31286 10.6168 6.14577C10.4506 5.97883 10.2469 5.89536 10.0058 5.89536C9.76467 5.89536 9.55953 5.97883 9.39037 6.14577C9.22134 6.31286 9.13682 6.51758 9.13682 6.75994V10.1454C9.13682 10.3877 9.21988 10.5924 9.38599 10.7593C9.55224 10.9264 9.75592 11.0099 9.99703 11.0099ZM10.0072 18.1693C8.8796 18.1693 7.81974 17.9567 6.82766 17.5314C5.83543 17.1061 4.96738 16.5216 4.22349 15.7779C3.47974 15.034 2.89523 14.1663 2.46995 13.1747C2.04467 12.1832 1.83203 11.1217 1.83203 9.99036C1.83203 8.85911 2.04467 7.80091 2.46995 6.81577C2.89523 5.8305 3.47974 4.96591 4.22349 4.22202C4.96738 3.47827 5.83509 2.89376 6.82661 2.46848C7.81814 2.04321 8.8796 1.83057 10.011 1.83057C11.1422 1.83057 12.2004 2.04321 13.1856 2.46848C14.1709 2.89376 15.0354 3.47827 15.7793 4.22202C16.5231 4.96591 17.1076 5.83203 17.5329 6.82036C17.9581 7.80869 18.1708 8.86661 18.1708 9.99411C18.1708 11.1217 17.9581 12.1816 17.5329 13.1737C17.1076 14.1659 16.5231 15.034 15.7793 15.7779C15.0354 16.5216 14.1693 17.1061 13.181 17.5314C12.1927 17.9567 11.1347 18.1693 10.0072 18.1693ZM10.0014 16.4402C11.7936 16.4402 13.3151 15.8149 14.5658 14.5643C15.8163 13.3136 16.4416 11.7922 16.4416 9.99994C16.4416 8.20772 15.8163 6.68626 14.5658 5.43557C13.3151 4.18501 11.7936 3.55973 10.0014 3.55973C8.20918 3.55973 6.68773 4.18501 5.43703 5.43557C4.18648 6.68626 3.5612 8.20772 3.5612 9.99994C3.5612 11.7922 4.18648 13.3136 5.43703 14.5643C6.68773 15.8149 8.20918 16.4402 10.0014 16.4402Z"
              fill="currentColor"/>
    </g>
</svg>
