<svg width="20" height="20" viewBox="0 0 20 20" fill="none" xmlns="http://www.w3.org/2000/svg">
<mask id="mask0_5452_14584" style="mask-type:alpha" maskUnits="userSpaceOnUse" x="-1" y="0" width="21" height="21">
<rect x="-0.5" y="0.431641" width="20" height="20" fill="#D9D9D9"/>
</mask>
<g mask="url(#mask0_5452_14584)">
<path d="M11.5062 15.4311C10.9474 15.4311 10.4736 15.2382 10.0847 14.8526C9.69585 14.4667 9.50141 13.9945 9.50141 13.4359C9.50141 12.8771 9.69425 12.4033 10.0799 12.0144C10.4658 11.6255 10.938 11.4311 11.4966 11.4311C12.0554 11.4311 12.5292 11.6239 12.9181 12.0096C13.307 12.3955 13.5014 12.8677 13.5014 13.4263C13.5014 13.9851 13.3086 14.4589 12.9229 14.8478C12.537 15.2367 12.0648 15.4311 11.5062 15.4311ZM4.0612 18.6005C3.58231 18.6005 3.17439 18.4296 2.83745 18.0878C2.5005 17.746 2.33203 17.3405 2.33203 16.8713V5.99089C2.33203 5.52172 2.5005 5.11623 2.83745 4.77443C3.17439 4.43262 3.58231 4.26172 4.0612 4.26172H5.50141V3.06651C5.50141 2.84068 5.57953 2.65012 5.73578 2.49484C5.89189 2.33943 6.08224 2.26172 6.30682 2.26172C6.53141 2.26172 6.72238 2.33943 6.87974 2.49484C7.03724 2.65012 7.11599 2.84068 7.11599 3.06651V4.26172H11.8868V3.06651C11.8868 2.84068 11.9649 2.65012 12.1212 2.49484C12.2773 2.33943 12.4677 2.26172 12.6922 2.26172C12.9168 2.26172 13.1078 2.33943 13.2652 2.49484C13.4227 2.65012 13.5014 2.84068 13.5014 3.06651V4.26172H14.9416C15.4205 4.26172 15.8284 4.43262 16.1654 4.77443C16.5023 5.11623 16.6708 5.52172 16.6708 5.99089V16.8713C16.6708 17.3405 16.5023 17.746 16.1654 18.0878C15.8284 18.4296 15.4205 18.6005 14.9416 18.6005H4.0612ZM4.0612 16.8713H14.9416V9.43109H4.0612V16.8713Z" fill="#1C1B1F"/>
</g>
</svg>
