<svg width="20" height="20" viewBox="0 0 20 20" fill="none" xmlns="http://www.w3.org/2000/svg">
<mask id="mask0_5452_14570" style="mask-type:alpha" maskUnits="userSpaceOnUse" x="0" y="0" width="20" height="20">
<rect width="20" height="20" fill="#D9D9D9"/>
</mask>
<g mask="url(#mask0_5452_14570)">
<path d="M6.77214 13.2305H9.2513C9.53325 13.2305 9.77387 13.3297 9.97318 13.5282C10.1725 13.7266 10.2721 13.9662 10.2721 14.2469C10.2721 14.5276 10.1725 14.7687 9.97318 14.9701C9.77387 15.1714 9.53325 15.2721 9.2513 15.2721H5.7513C5.46936 15.2721 5.22873 15.1725 5.02943 14.9732C4.83012 14.7739 4.73047 14.5332 4.73047 14.2513V10.7513C4.73047 10.4694 4.8297 10.2287 5.02818 10.0294C5.22665 9.83012 5.46623 9.73047 5.74693 9.73047C6.02762 9.73047 6.26866 9.83012 6.47005 10.0294C6.67144 10.2287 6.77214 10.4694 6.77214 10.7513V13.2305ZM13.2305 6.77214H10.7513C10.4694 6.77214 10.2287 6.6729 10.0294 6.47443C9.83012 6.27596 9.73047 6.03637 9.73047 5.75568C9.73047 5.47498 9.83012 5.23394 10.0294 5.03255C10.2287 4.83116 10.4694 4.73047 10.7513 4.73047H14.2513C14.5332 4.73047 14.7739 4.83012 14.9732 5.02943C15.1725 5.22873 15.2721 5.46936 15.2721 5.7513V9.2513C15.2721 9.53325 15.1729 9.77387 14.9744 9.97318C14.776 10.1725 14.5364 10.2721 14.2557 10.2721C13.975 10.2721 13.7339 10.1725 13.5326 9.97318C13.3312 9.77387 13.2305 9.53325 13.2305 9.2513V6.77214Z" fill="currentColor"/>
</g>
</svg>
