<svg width="20" height="20" viewBox="0 0 20 20" fill="none" xmlns="http://www.w3.org/2000/svg">
<mask id="mask0_5452_14599" style="mask-type:alpha" maskUnits="userSpaceOnUse" x="0" y="0" width="20" height="20">
<rect width="20" height="20" fill="#D9D9D9"/>
</mask>
<g mask="url(#mask0_5452_14599)">
<path d="M3.91818 18.1685C3.64554 18.1685 3.43415 18.0814 3.28401 17.9073C3.13373 17.733 3.05859 17.533 3.05859 17.3075C3.05859 17.1979 3.07845 17.0911 3.11818 16.9871C3.1579 16.8829 3.21908 16.7867 3.30172 16.6985L16.7005 3.29977C16.7876 3.21713 16.8825 3.15595 16.9853 3.11622C17.088 3.0765 17.1937 3.05664 17.3021 3.05664C17.5256 3.05664 17.7262 3.13178 17.904 3.28206C18.0816 3.4322 18.1705 3.64359 18.1705 3.91622V16.8691C18.1705 17.2282 18.0445 17.5345 17.7926 17.7881C17.5406 18.0417 17.2351 18.1685 16.8761 18.1685H3.91818Z" fill="#1F1F2F"/>
</g>
</svg>
