<svg width="20" height="21" viewBox="0 0 20 21" fill="none" xmlns="http://www.w3.org/2000/svg">
<g clip-path="url(#clip0_8383_246310)">
<path d="M20 10.0181C20 4.49527 15.5228 0.0180664 10 0.0180664C4.4772 0.0180664 0 4.49527 0 10.0181C0 14.7077 3.2288 18.6429 7.5844 19.7237V13.0741H5.5224V10.0181H7.5844V8.70127C7.5844 5.29767 9.1248 3.72007 12.4664 3.72007C13.1 3.72007 14.1932 3.84447 14.6404 3.96847V6.73847C14.4044 6.71367 13.9944 6.70127 13.4852 6.70127C11.8456 6.70127 11.212 7.32247 11.212 8.93727V10.0181H14.4784L13.9172 13.0741H11.212V19.9449C16.1636 19.3469 20.0004 15.1309 20.0004 10.0181H20Z" fill="#0866FF"/>
<path d="M13.9182 13.0742L14.4794 10.0182H11.213V8.93741C11.213 7.32261 11.8466 6.70141 13.4862 6.70141C13.9954 6.70141 14.4054 6.71381 14.6414 6.73861V3.96861C14.1942 3.84421 13.101 3.72021 12.4674 3.72021C9.12584 3.72021 7.58544 5.29781 7.58544 8.70141V10.0182H5.52344V13.0742H7.58544V19.7238C8.35904 19.9158 9.16824 20.0182 10.001 20.0182C10.411 20.0182 10.8154 19.993 11.2126 19.945V13.0742H13.9178H13.9182Z" fill="white"/>
</g>
<defs>
<clipPath id="clip0_8383_246310">
<rect width="20" height="20" fill="white" transform="translate(0 0.0180664)"/>
</clipPath>
</defs>
</svg>
