<svg width="20" height="20" viewBox="0 0 20 20" fill="none" xmlns="http://www.w3.org/2000/svg">
<mask id="mask0_5452_14593" style="mask-type:alpha" maskUnits="userSpaceOnUse" x="0" y="0" width="20" height="20">
<rect width="20" height="20" fill="#D9D9D9"/>
</mask>
<g mask="url(#mask0_5452_14593)">
<path d="M6.80177 11.1983C6.11463 11.1983 5.53187 10.9654 5.0535 10.4996C4.57512 10.0339 4.33594 9.46648 4.33594 8.79745C4.33594 8.12852 4.57512 7.56176 5.0535 7.09715C5.53187 6.63264 6.11463 6.40039 6.80177 6.40039C7.48891 6.40039 8.07166 6.63264 8.55003 7.09715C9.02841 7.56176 9.26759 8.12852 9.26759 8.79745C9.26759 9.46648 9.02841 10.0339 8.55003 10.4996C8.07166 10.9654 7.48891 11.1983 6.80177 11.1983Z" fill="#1F1F2F"/>
<path d="M2 14.3505V14.6915C2 15.0574 2.13026 15.3672 2.39079 15.6209C2.65132 15.8745 2.9695 16.0014 3.34532 16.0014H10.2544C10.6303 16.0014 10.9484 15.8745 11.209 15.6209C11.4695 15.3672 11.5998 15.0574 11.5998 14.6915V14.3505C11.5998 14.0808 11.5257 13.826 11.3777 13.5862C11.2298 13.3464 11.0253 13.1531 10.7644 13.0062C10.1675 12.667 9.53153 12.4073 8.8566 12.2272C8.18167 12.0471 7.4961 11.957 6.79988 11.957C6.10874 11.957 5.42576 12.0477 4.75094 12.2291C4.07601 12.4105 3.43749 12.6708 2.8354 13.01C2.57444 13.1674 2.36999 13.364 2.22206 13.5997C2.07402 13.8355 2 14.0858 2 14.3505Z" fill="#1F1F2F"/>
<path d="M11 9.96307V10.2189C11 10.4933 11.0977 10.7257 11.2931 10.9159C11.4885 11.1062 11.7271 11.2013 12.009 11.2013H17.1909C17.4728 11.2013 17.7115 11.1062 17.9068 10.9159C18.1022 10.7257 18.1999 10.4933 18.1999 10.2189V9.96307C18.1999 9.76083 18.1444 9.56975 18.0334 9.38984C17.9225 9.21 17.7691 9.06501 17.5734 8.95485C17.1257 8.70045 16.6487 8.5057 16.1425 8.37061C15.6363 8.23552 15.1221 8.16797 14.6 8.16797C14.0816 8.16797 13.5694 8.23599 13.0632 8.37203C12.557 8.50807 12.0781 8.70329 11.6266 8.95769C11.4308 9.07574 11.2775 9.22318 11.1665 9.40002C11.0555 9.57685 11 9.76454 11 9.96307Z" fill="#1F1F2F"/>
<path d="M14.5994 7.59849C14.084 7.59849 13.647 7.42383 13.2882 7.0745C12.9294 6.72517 12.75 6.29961 12.75 5.79783C12.75 5.29612 12.9294 4.87104 13.2882 4.52258C13.647 4.17419 14.084 4 14.5994 4C15.1148 4 15.5518 4.17419 15.9106 4.52258C16.2694 4.87104 16.4488 5.29612 16.4488 5.79783C16.4488 6.29961 16.2694 6.72517 15.9106 7.0745C15.5518 7.42383 15.1148 7.59849 14.5994 7.59849Z" fill="#1F1F2F"/>
</g>
</svg>
