<svg width="20" height="20" viewBox="0 0 20 20" fill="none" xmlns="http://www.w3.org/2000/svg">
<mask id="mask0_5452_14606" style="mask-type:alpha" maskUnits="userSpaceOnUse" x="0" y="0" width="20" height="20">
<rect width="20" height="20" fill="#D9D9D9"/>
</mask>
<g mask="url(#mask0_5452_14606)">
<path d="M9.99583 3C10.9708 3 11.8799 3.18097 12.7231 3.54292C13.5662 3.90486 14.3031 4.40257 14.934 5.03604C15.2558 5.35924 15.5435 5.70882 15.7973 6.08479C16.051 6.46063 16.2714 6.85597 16.4583 7.27083C16.625 7.67361 16.7535 8.07986 16.8438 8.48958C16.934 8.89931 16.9861 9.31944 17 9.75C17.0139 9.95833 16.9412 10.1354 16.7821 10.2812C16.6229 10.4271 16.4393 10.5 16.2312 10.5C16.0354 10.5 15.8681 10.4271 15.7292 10.2812C15.5903 10.1354 15.5139 9.95833 15.5 9.75C15.4861 9.625 15.4757 9.50229 15.4688 9.38188C15.4618 9.2616 15.4444 9.14125 15.4167 9.02083H12.9583C12.9722 9.14583 12.9826 9.26736 12.9896 9.38542C12.9965 9.50347 13 9.625 13 9.75C13 9.9625 12.9253 10.1406 12.7758 10.2844C12.6264 10.4281 12.4458 10.5 12.2342 10.5C12.0225 10.5 11.8472 10.4271 11.7083 10.2812C11.5694 10.1354 11.4931 9.95833 11.4792 9.75C11.4792 9.62847 11.476 9.50694 11.4698 9.38542C11.4635 9.26389 11.4542 9.14236 11.4417 9.02083H8.54167C8.52778 9.14236 8.51736 9.26389 8.51042 9.38542C8.50347 9.50694 8.5 9.62847 8.5 9.75C8.48611 9.95833 8.41097 10.1354 8.27458 10.2812C8.13819 10.4271 7.96458 10.5 7.75375 10.5C7.54292 10.5 7.36458 10.4281 7.21875 10.2844C7.07292 10.1406 7 9.9625 7 9.75C7 9.625 7.00347 9.50347 7.01042 9.38542C7.01736 9.26736 7.02778 9.14583 7.04167 9.02083H4.58333C4.55556 9.14125 4.53819 9.2616 4.53125 9.38188C4.52431 9.50229 4.51389 9.625 4.5 9.75C4.48611 9.95833 4.40972 10.1354 4.27083 10.2812C4.13194 10.4271 3.96458 10.5 3.76875 10.5C3.56069 10.5 3.37708 10.4271 3.21792 10.2812C3.05875 10.1354 2.98611 9.95833 3 9.75C3.01389 9.31944 3.06597 8.89931 3.15625 8.48958C3.24653 8.07986 3.375 7.67361 3.54167 7.27083C3.72361 6.85667 3.93813 6.46194 4.18521 6.08667C4.43215 5.71139 4.71813 5.36195 5.04313 5.03833C5.68007 4.40417 6.42104 3.9059 7.26604 3.54354C8.11104 3.18118 9.02097 3 9.99583 3ZM5.08333 7.52083H7.25C7.36111 6.97917 7.49306 6.48611 7.64583 6.04167C7.79861 5.59722 7.97917 5.1875 8.1875 4.8125C7.50694 5.04861 6.89931 5.39931 6.36458 5.86458C5.82986 6.32986 5.40278 6.88194 5.08333 7.52083ZM8.79167 7.52083H11.2083C11.0972 6.99306 10.9479 6.47917 10.7604 5.97917C10.5729 5.47917 10.3194 5.00694 10 4.5625C9.68056 5.00694 9.42667 5.47972 9.23833 5.98083C9.05 6.48195 8.90111 6.99528 8.79167 7.52083ZM12.7515 7.52083H14.9167C14.5972 6.88194 14.1701 6.32986 13.6354 5.86458C13.1007 5.39931 12.5 5.04861 11.8333 4.8125C12.0417 5.1875 12.2188 5.59722 12.3646 6.04167C12.5104 6.48611 12.6394 6.97917 12.7515 7.52083ZM10.0044 17C9.79313 17 9.61458 16.9281 9.46875 16.7844C9.32292 16.6406 9.25 16.4625 9.25 16.25C9.25 15.375 9.03125 14.6979 8.59375 14.2188C8.15625 13.7396 7.625 13.5 7 13.5H2.75C2.5375 13.5 2.35938 13.4285 2.21562 13.2856C2.07187 13.1427 2 12.9656 2 12.7544C2 12.5431 2.07187 12.3646 2.21562 12.2188C2.35938 12.0729 2.5375 12 2.75 12H7C7.6 12 8.15937 12.1313 8.67812 12.3938C9.19688 12.6562 9.6375 13.025 10 13.5C10.3625 13.025 10.8031 12.6562 11.3219 12.3938C11.8406 12.1313 12.4 12 13 12H17.25C17.4625 12 17.6406 12.0715 17.7844 12.2144C17.9281 12.3573 18 12.5344 18 12.7456C18 12.9569 17.9281 13.1354 17.7844 13.2812C17.6406 13.4271 17.4625 13.5 17.25 13.5H13C12.375 13.5 11.8438 13.7396 11.4062 14.2188C10.9688 14.6979 10.75 15.375 10.75 16.25C10.75 16.4625 10.6785 16.6406 10.5356 16.7844C10.3927 16.9281 10.2156 17 10.0044 17Z" fill="#1F1F2F"/>
</g>
</svg>
