<svg width="20" height="20" viewBox="0 0 20 20" fill="none" xmlns="http://www.w3.org/2000/svg">
<path fill-rule="evenodd" clip-rule="evenodd" d="M13.367 7.10455C12.5898 6.36136 11.6011 5.98295 10.5 5.98295C8.54659 5.98295 6.89318 7.30227 6.30341 9.075L6.30341 9.07501C6.15341 9.52501 6.06818 10.0057 6.06818 10.5C6.06818 10.9943 6.15341 11.475 6.30341 11.925C6.89318 13.6977 8.54659 15.017 10.5 15.017C11.5091 15.017 12.3682 14.7511 13.0398 14.3011L13.0398 14.3005C13.8341 13.7687 14.3625 12.9744 14.5364 12.0369H10.5V9.13574H17.5636C17.6523 9.62665 17.7 10.138 17.7 10.6698C17.7 12.9539 16.8818 14.8767 15.4636 16.1823H15.4628L15.4636 16.1829C14.2227 17.3284 12.525 18 10.5 18C7.56818 18 5.03182 16.3193 3.79773 13.8682L3.79773 13.8682C3.28977 12.8557 3 11.7102 3 10.5C3 9.28978 3.28977 8.14433 3.79773 7.13183H3.79774L3.79773 7.13182C5.03182 4.68068 7.56818 3 10.5 3C12.5216 3 14.2193 3.74318 15.5182 4.95341L13.367 7.10455Z" fill="#1F1F2F"/>
</svg>
