<svg width="20" height="20" viewBox="0 0 20 20" fill="none" xmlns="http://www.w3.org/2000/svg">
<mask id="mask0_5452_14607" style="mask-type:alpha" maskUnits="userSpaceOnUse" x="-1" y="0" width="21" height="21">
<rect x="-0.5" y="0.431641" width="20" height="20" fill="#D9D9D9"/>
</mask>
<g mask="url(#mask0_5452_14607)">
<path d="M5.5625 15.5H14.4375L12.6042 13.6667C12.2421 13.9318 11.8394 14.137 11.3963 14.2823C10.9531 14.4274 10.4881 14.5 10.0013 14.5C9.51431 14.5 9.04896 14.4259 8.60521 14.2777C8.16146 14.1297 7.75833 13.926 7.39583 13.6667L5.5625 15.5ZM4.5 14.4583L6.33333 12.625C6.06819 12.2599 5.86299 11.8538 5.71771 11.4069C5.57257 10.9599 5.5 10.491 5.5 10C5.5 9.51292 5.5741 9.04764 5.72229 8.60417C5.87035 8.16083 6.07403 7.75806 6.33333 7.39583L4.5 5.5625V14.4583ZM7.41667 11.5417L8.9375 10L7.41667 8.47917C7.27778 8.70764 7.17361 8.94875 7.10417 9.2025C7.03472 9.45639 7 9.72222 7 10C7 10.2778 7.03472 10.546 7.10417 10.8046C7.17361 11.0632 7.27778 11.3089 7.41667 11.5417ZM10 13C10.2778 13 10.5436 12.9653 10.7975 12.8958C11.0513 12.8264 11.2924 12.7222 11.5208 12.5833L10 11.0625L8.47917 12.5833C8.70167 12.7222 8.93965 12.8264 9.19312 12.8958C9.4466 12.9653 9.71556 13 10 13ZM10 8.9375L11.5208 7.41667C11.2924 7.27778 11.0513 7.17361 10.7975 7.10417C10.5436 7.03472 10.2778 7 10 7C9.72222 7 9.45639 7.03472 9.2025 7.10417C8.94875 7.17361 8.70764 7.27778 8.47917 7.41667L10 8.9375ZM12.5833 11.5208C12.7222 11.2924 12.8264 11.0513 12.8958 10.7975C12.9653 10.5436 13 10.2778 13 10C13 9.72222 12.9653 9.45542 12.8958 9.19958C12.8264 8.94389 12.7222 8.70375 12.5833 8.47917L11.0625 10L12.5833 11.5208ZM15.5 14.4375V5.5625L13.6667 7.39583C13.926 7.75792 14.1297 8.16056 14.2777 8.60375C14.4259 9.04694 14.5 9.51194 14.5 9.99875C14.5 10.4857 14.4274 10.951 14.2823 11.3948C14.137 11.8385 13.9318 12.2417 13.6667 12.6042L15.5 14.4375ZM12.6042 6.33333L14.4375 4.5H5.5625L7.39583 6.33333C7.75792 6.06819 8.16056 5.86299 8.60375 5.71771C9.04694 5.57257 9.51194 5.5 9.99875 5.5C10.4857 5.5 10.951 5.5741 11.3948 5.72229C11.8385 5.87035 12.2417 6.07403 12.6042 6.33333ZM4.5 17C4.0875 17 3.73437 16.8531 3.44062 16.5594C3.14687 16.2656 3 15.9125 3 15.5V4.5C3 4.0875 3.14687 3.73438 3.44062 3.44063C3.73437 3.14688 4.0875 3 4.5 3H15.5C15.9125 3 16.2656 3.14688 16.5594 3.44063C16.8531 3.73438 17 4.0875 17 4.5V15.5C17 15.9125 16.8531 16.2656 16.5594 16.5594C16.2656 16.8531 15.9125 17 15.5 17H4.5Z" fill="#1C1B1F"/>
</g>
</svg>
