<svg width="20" height="20" viewBox="0 0 20 20" fill="none" xmlns="http://www.w3.org/2000/svg">
<mask id="mask0_5452_14596" style="mask-type:alpha" maskUnits="userSpaceOnUse" x="0" y="0" width="20" height="20">
<rect width="20" height="20" fill="#D9D9D9"/>
</mask>
<g mask="url(#mask0_5452_14596)">
<path d="M4.37519 3.08294C4.24964 3.46919 4.15894 3.86496 4.10311 4.27023C4.04728 4.67565 4.01936 5.08364 4.01936 5.49419C4.01936 6.35989 4.16172 7.19773 4.44644 8.00773C4.73116 8.81787 5.13769 9.56878 5.66603 10.2604C5.77325 10.3916 5.82603 10.5407 5.82436 10.7077C5.82269 10.8748 5.75797 11.0222 5.63019 11.15C5.51644 11.2638 5.37846 11.3164 5.21623 11.3079C5.05415 11.2993 4.92644 11.2311 4.83311 11.1034C4.19089 10.305 3.69818 9.42836 3.35498 8.47336C3.01165 7.51836 2.83998 6.5253 2.83998 5.49419C2.83998 5.08294 2.86623 4.67253 2.91873 4.26294C2.97123 3.85336 3.06033 3.44996 3.18603 3.05273L2.05686 4.18169C1.94311 4.29558 1.80346 4.35253 1.6379 4.35253C1.47248 4.35253 1.33283 4.29558 1.21894 4.18169C1.10519 4.06794 1.04915 3.92829 1.05082 3.76273C1.05248 3.59732 1.11019 3.45766 1.22394 3.34378L3.15748 1.41044C3.33346 1.23447 3.53526 1.14648 3.7629 1.14648C3.99054 1.14648 4.19241 1.23447 4.36853 1.41044L6.28603 3.32794C6.39991 3.44183 6.45686 3.58065 6.45686 3.7444C6.45686 3.90829 6.39991 4.04711 6.28603 4.16086C6.17228 4.27475 6.03262 4.33253 5.86707 4.33419C5.70165 4.33586 5.562 4.27808 5.44811 4.16086L4.37519 3.08294ZM13.3767 16.9919C13.0505 17.1063 12.7185 17.1593 12.3804 17.1507C12.0425 17.142 11.7191 17.0683 11.4102 16.9294L6.58186 14.6134C6.41061 14.54 6.29443 14.4177 6.23332 14.2465C6.17221 14.0752 6.1836 13.9041 6.26748 13.7329L6.31998 13.6069C6.44443 13.3111 6.63832 13.072 6.90165 12.8896C7.16512 12.7072 7.46568 12.6055 7.80332 12.5844L9.31769 12.4425L7.01519 6.08753C6.93908 5.87975 6.95116 5.67301 7.05144 5.46732C7.15172 5.26148 7.30568 5.12051 7.51332 5.0444C7.7211 4.96843 7.9279 4.98051 8.13373 5.08065C8.33943 5.18093 8.48033 5.33496 8.55644 5.54274L10.3631 10.525L11.2956 10.1759L10.4898 7.9769C10.4138 7.76926 10.4259 7.56253 10.526 7.35669C10.6263 7.151 10.7803 7.0101 10.9881 6.93398C11.1957 6.85787 11.4025 6.86648 11.6083 6.95982C11.814 7.05315 11.9549 7.20364 12.031 7.41128L12.8369 9.62607L13.7744 9.2769L13.3227 8.01544C13.2466 7.8078 13.2552 7.60107 13.3485 7.39523C13.4419 7.18954 13.5923 7.04864 13.8 6.97253C14.0078 6.89641 14.2146 6.90419 14.4204 6.99586C14.6261 7.08739 14.767 7.23704 14.8431 7.44482L15.3154 8.7319L16.2529 8.37773L16.1348 8.05398C16.0587 7.84621 16.0673 7.63947 16.1606 7.43378C16.2539 7.22794 16.4044 7.08697 16.6121 7.01086C16.8198 6.93489 17.0258 6.9435 17.23 7.03669C17.434 7.13003 17.5741 7.28058 17.6502 7.48836L18.9967 11.1536C19.3367 12.0869 19.3003 13.0028 18.8875 13.9013C18.4747 14.7999 17.8017 15.4122 16.8685 15.7384L13.3767 16.9919Z" fill="#1F1F2F"/>
</g>
</svg>
