<svg width="20" height="20" viewBox="0 0 20 20" fill="none" xmlns="http://www.w3.org/2000/svg">
    <mask id="mask0_5452_14577" style="mask-type:alpha" maskUnits="userSpaceOnUse" x="0" y="0" width="20" height="20">
        <rect width="20" height="20" fill="#D9D9D9"/>
    </mask>
    <g mask="url(#mask0_5452_14577)">
        <path d="M15.3966 17.6195L13.3236 15.5624C12.7927 15.7358 12.2495 15.878 11.6943 15.9891C11.139 16.1002 10.575 16.1558 10.0022 16.1558C8.16288 16.1558 6.47281 15.6733 4.93198 14.7083C3.39128 13.7434 2.17844 12.4524 1.29344 10.8352C1.21399 10.7075 1.15955 10.5729 1.1301 10.4312C1.10066 10.2895 1.08594 10.1463 1.08594 10.0014C1.08594 9.85655 1.10413 9.71328 1.14052 9.57161C1.17691 9.42995 1.23483 9.29529 1.31427 9.16766C1.65149 8.58363 2.02163 8.02398 2.42469 7.4887C2.82774 6.95342 3.28656 6.46356 3.80115 6.01911L2.28844 4.51141C2.12566 4.34863 2.04427 4.16585 2.04427 3.96307C2.04427 3.76043 2.12399 3.57939 2.28344 3.41995C2.44622 3.25717 2.63247 3.17578 2.84219 3.17578C3.05177 3.17578 3.23795 3.25717 3.40073 3.41995L16.5091 16.5281C16.6717 16.6909 16.7522 16.8736 16.7505 17.0764C16.7489 17.2792 16.6684 17.4602 16.5091 17.6195C16.3463 17.7823 16.1609 17.8637 15.9528 17.8637C15.7448 17.8637 15.5593 17.7823 15.3966 17.6195ZM10.0022 13.5014C10.18 13.5014 10.3586 13.4814 10.5382 13.4414C10.7177 13.4014 10.898 13.3553 11.0793 13.3031L6.69052 8.92432C6.65552 9.10557 6.61538 9.28592 6.5701 9.46536C6.52483 9.64495 6.50219 9.82363 6.50219 10.0014C6.50219 10.9736 6.84247 11.8 7.52302 12.4806C8.20358 13.1611 9.02997 13.5014 10.0022 13.5014ZM10.0022 3.84703C11.8415 3.84703 13.535 4.32953 15.0828 5.29453C16.6305 6.25939 17.8468 7.55904 18.7318 9.19349C18.8079 9.32446 18.8615 9.45648 18.8926 9.58953C18.9237 9.72245 18.9393 9.85974 18.9393 10.0014C18.9393 10.1431 18.9202 10.2812 18.8822 10.4158C18.8441 10.5505 18.794 10.6834 18.7318 10.8143C18.4845 11.2672 18.2128 11.7035 17.9166 12.1231C17.6205 12.5425 17.2859 12.9368 16.913 13.3058C16.7264 13.5023 16.4975 13.5979 16.2266 13.5927C15.9556 13.5874 15.7235 13.4881 15.5303 13.2949L13.6295 11.3941C13.5328 11.2974 13.4689 11.1784 13.4378 11.0368C13.4067 10.8952 13.405 10.7604 13.4328 10.6327C13.4507 10.531 13.4668 10.4249 13.4809 10.3145C13.4951 10.2043 13.5022 10.0999 13.5022 10.0014C13.5022 9.02918 13.1619 8.2028 12.4814 7.52224C11.8008 6.84168 10.9744 6.50141 10.0022 6.50141C9.88983 6.50141 9.78198 6.50932 9.67865 6.52516C9.57517 6.54099 9.4726 6.55786 9.37094 6.57578C9.24316 6.60023 9.11274 6.59689 8.97969 6.56578C8.84677 6.53467 8.73198 6.47078 8.63531 6.37411L7.85094 5.58974C7.58163 5.32043 7.49524 5.0028 7.59177 4.63682C7.68844 4.27085 7.91976 4.05148 8.28573 3.9787C8.57865 3.91925 8.86552 3.88245 9.14635 3.86828C9.42733 3.85411 9.7126 3.84703 10.0022 3.84703ZM11.4334 8.55203C11.5145 8.62662 11.5799 8.70835 11.6295 8.79724C11.6789 8.88599 11.7159 8.98349 11.7403 9.08974C11.7681 9.16696 11.7435 9.22398 11.6666 9.26078C11.5896 9.29745 11.523 9.28766 11.4668 9.23141L10.753 8.49682C10.6969 8.44071 10.6864 8.37418 10.7214 8.29724C10.7564 8.22016 10.8142 8.19023 10.8949 8.20745C10.9945 8.24578 11.0905 8.29502 11.1828 8.35516C11.2753 8.41516 11.3589 8.48078 11.4334 8.55203Z"
              fill="currentColor"/>
    </g>
</svg>
