<svg width="20" height="20" viewBox="0 0 20 20" fill="none" xmlns="http://www.w3.org/2000/svg">
<mask id="mask0_5452_14595" style="mask-type:alpha" maskUnits="userSpaceOnUse" x="0" y="0" width="20" height="20">
<rect width="20" height="20" fill="#D9D9D9"/>
</mask>
<g mask="url(#mask0_5452_14595)">
<path d="M14.6518 11.2106C14.8756 11.2106 15.0631 11.1353 15.2145 10.9847C15.3659 10.8342 15.4416 10.6477 15.4416 10.4252C15.4416 10.2027 15.3659 10.0147 15.2145 9.8612C15.0631 9.70773 14.8756 9.63099 14.6518 9.63099H11.851C11.6272 9.63099 11.4397 9.70627 11.2883 9.85682C11.1369 10.0074 11.0612 10.1939 11.0612 10.4164C11.0612 10.6389 11.1369 10.8269 11.2883 10.9804C11.4397 11.1338 11.6272 11.2106 11.851 11.2106H14.6518ZM14.6518 8.63099C14.8756 8.63099 15.0631 8.55571 15.2145 8.40516C15.3659 8.2546 15.4416 8.068 15.4416 7.84537C15.4416 7.62286 15.3659 7.43488 15.2145 7.28141C15.0631 7.12793 14.8756 7.0512 14.6518 7.0512H11.851C11.6272 7.0512 11.4397 7.12648 11.2883 7.27703C11.1369 7.42759 11.0612 7.61412 11.0612 7.83662C11.0612 8.05925 11.1369 8.24731 11.2883 8.40078C11.4397 8.55425 11.6272 8.63099 11.851 8.63099H14.6518ZM7.05078 10.5512C6.66161 10.5512 6.29564 10.5894 5.95287 10.6658C5.61023 10.7422 5.28523 10.8568 4.97786 11.0095C4.71342 11.1523 4.50446 11.3295 4.35099 11.5412C4.19766 11.7529 4.12099 11.9806 4.12099 12.2243C4.12099 12.4321 4.18578 12.6052 4.31536 12.7437C4.44509 12.8823 4.59467 12.9516 4.76411 12.9516H9.35828C9.52495 12.9516 9.67217 12.8825 9.79995 12.7443C9.92759 12.6061 9.99141 12.4344 9.99141 12.2291C9.99141 11.9779 9.91474 11.7502 9.76141 11.546C9.60793 11.3417 9.40231 11.1698 9.14453 11.0304C8.82328 10.8776 8.49127 10.7595 8.14849 10.6762C7.80585 10.5929 7.43995 10.5512 7.05078 10.5512ZM7.06557 10.0512C7.47932 10.0512 7.83203 9.90391 8.1237 9.60932C8.41536 9.31474 8.5612 8.96057 8.5612 8.54682C8.5612 8.13307 8.41391 7.78037 8.11932 7.4887C7.8246 7.19703 7.47043 7.0512 7.05682 7.0512C6.64307 7.0512 6.29036 7.19849 5.9987 7.49307C5.70703 7.78779 5.5612 8.14196 5.5612 8.55557C5.5612 8.96932 5.70849 9.32203 6.00307 9.6137C6.29766 9.90536 6.65182 10.0512 7.06557 10.0512ZM3.5612 16.1708C3.08231 16.1708 2.67439 16.0022 2.33745 15.6652C2.0005 15.3281 1.83203 14.9199 1.83203 14.4408V5.55537C1.83203 5.0762 2.0005 4.66918 2.33745 4.33432C2.67439 3.99946 3.08231 3.83203 3.5612 3.83203H16.4416C16.9205 3.83203 17.3284 4.00057 17.6654 4.33766C18.0023 4.67474 18.1708 5.08286 18.1708 5.56203V14.4474C18.1708 14.9266 18.0023 15.3336 17.6654 15.6685C17.3284 16.0034 16.9205 16.1708 16.4416 16.1708H3.5612Z" fill="#1F1F2F"/>
</g>
</svg>
