<svg width="20" height="20" viewBox="0 0 20 20" fill="none" xmlns="http://www.w3.org/2000/svg">
<mask id="mask0_5452_14561" style="mask-type:alpha" maskUnits="userSpaceOnUse" x="0" y="0" width="20" height="20">
<rect width="20" height="20" fill="#D9D9D9"/>
</mask>
<g mask="url(#mask0_5452_14561)">
<path d="M12.0016 6.39583C12.0016 5.86806 11.8141 5.43403 11.4391 5.09375C11.0641 4.75347 10.5849 4.58333 10.0016 4.58333C9.64048 4.58333 9.31062 4.66319 9.01201 4.82292C8.7134 4.98264 8.45298 5.20833 8.23076 5.5C8.03631 5.76389 7.78979 5.93056 7.49117 6C7.19256 6.06944 6.91131 6.02778 6.64742 5.875C6.36965 5.70833 6.20298 5.49653 6.14742 5.23958C6.09187 4.98264 6.16131 4.71528 6.35576 4.4375C6.75854 3.82639 7.28284 3.35069 7.92867 3.01042C8.57451 2.67014 9.26548 2.5 10.0016 2.5C11.2377 2.5 12.2446 2.85764 13.0224 3.57292C13.8002 4.28819 14.1891 5.20833 14.1891 6.33333C14.1891 6.91667 14.0606 7.44792 13.8037 7.92708C13.5467 8.40625 13.0849 8.95833 12.4183 9.58333C11.9738 9.98611 11.6752 10.3125 11.5224 10.5625C11.3696 10.8125 11.2655 11.0972 11.2099 11.4167C11.1544 11.7361 11.019 11.9965 10.8037 12.1979C10.5884 12.3993 10.3349 12.5 10.0433 12.5C9.7377 12.5 9.48076 12.3993 9.27242 12.1979C9.06409 11.9965 8.95992 11.7569 8.95992 11.4792C8.95992 10.9653 9.08145 10.4826 9.32451 10.0312C9.56756 9.57986 9.95298 9.13194 10.4808 8.6875C11.078 8.15972 11.4808 7.74306 11.6891 7.4375C11.8974 7.13194 12.0016 6.78472 12.0016 6.39583ZM10.0016 17C9.58492 17 9.23076 16.8542 8.93909 16.5625C8.64742 16.2708 8.50159 15.9167 8.50159 15.5C8.50159 15.0833 8.64742 14.7292 8.93909 14.4375C9.23076 14.1458 9.58492 14 10.0016 14C10.4183 14 10.7724 14.1458 11.0641 14.4375C11.3558 14.7292 11.5016 15.0833 11.5016 15.5C11.5016 15.9167 11.3558 16.2708 11.0641 16.5625C10.7724 16.8542 10.4183 17 10.0016 17Z" fill="currentColor"/>
</g>
</svg>
