<svg width="20" height="20" viewBox="0 0 20 20" fill="none" xmlns="http://www.w3.org/2000/svg">
    <mask id="mask0_5452_14603" style="mask-type:alpha" maskUnits="userSpaceOnUse" x="0" y="0" width="20" height="20">
        <rect width="20" height="20" fill="#D9D9D9"/>
    </mask>
    <g mask="url(#mask0_5452_14603)">
        <path d="M10.0035 17.0896C9.76904 17.0896 9.56974 17.0086 9.40557 16.8466C9.24155 16.6846 9.15953 16.4857 9.15953 16.25V10.9121H8.97203C8.18412 10.9022 7.4271 10.7455 6.70099 10.4418C5.97488 10.1382 5.3271 9.70865 4.75766 9.1531C4.15627 8.57046 3.69543 7.89789 3.37516 7.13539C3.05474 6.37289 2.89453 5.57775 2.89453 4.74997V3.76497C2.89453 3.52261 2.978 3.31789 3.14495 3.15081C3.31203 2.98386 3.51675 2.90039 3.75911 2.90039H4.74411C5.54911 2.90039 6.31849 3.0522 7.05224 3.35581C7.78613 3.65928 8.4428 4.09379 9.02224 4.65935C9.40835 5.03171 9.73516 5.44831 10.0027 5.90914C10.2702 6.37011 10.4767 6.85282 10.6222 7.35727C10.609 7.37727 10.5941 7.39636 10.5774 7.41456C10.5609 7.43289 10.5427 7.45199 10.5227 7.47185C11.0604 6.72574 11.7518 6.15234 12.5966 5.75164C13.4416 5.35081 14.3291 5.15039 15.2591 5.15039H16.2441C16.4865 5.15039 16.6912 5.23386 16.8583 5.40081C17.0252 5.56789 17.1087 5.77261 17.1087 6.01497V6.99997C17.1087 7.82886 16.9499 8.62511 16.6324 9.38872C16.3149 10.1522 15.8527 10.8237 15.2456 11.4031C14.69 11.8892 14.0741 12.2667 13.3979 12.5356C12.7218 12.8045 12.0145 12.9439 11.2762 12.9537H10.8387V16.25C10.8387 16.4857 10.7581 16.6846 10.597 16.8466C10.4359 17.0086 10.2381 17.0896 10.0035 17.0896Z"
              fill="currentColor"/>
    </g>
</svg>
