<svg width="20" height="21" viewBox="0 0 20 21" fill="none" xmlns="http://www.w3.org/2000/svg">
<g clip-path="url(#clip0_8383_246312)">
<path d="M18.5236 0.0180664H1.47639C1.08483 0.0180664 0.709301 0.173614 0.432425 0.450491C0.155548 0.727368 0 1.10289 0 1.49446V18.5417C0 18.9332 0.155548 19.3088 0.432425 19.5856C0.709301 19.8625 1.08483 20.0181 1.47639 20.0181H18.5236C18.9152 20.0181 19.2907 19.8625 19.5676 19.5856C19.8445 19.3088 20 18.9332 20 18.5417V1.49446C20 1.10289 19.8445 0.727368 19.5676 0.450491C19.2907 0.173614 18.9152 0.0180664 18.5236 0.0180664ZM5.96111 17.0556H2.95417V7.50418H5.96111V17.0556ZM4.45556 6.18057C4.11447 6.17865 3.7816 6.07573 3.49895 5.88481C3.21629 5.69388 2.99653 5.42351 2.8674 5.10781C2.73826 4.79211 2.70554 4.44523 2.77336 4.11095C2.84118 3.77666 3.0065 3.46996 3.24846 3.22955C3.49042 2.98914 3.79818 2.82579 4.13289 2.76012C4.4676 2.69444 4.81426 2.72939 5.12913 2.86055C5.44399 2.99171 5.71295 3.21321 5.90205 3.49708C6.09116 3.78095 6.19194 4.11448 6.19167 4.45557C6.19488 4.68393 6.15209 4.9106 6.06584 5.12207C5.97959 5.33354 5.85165 5.52548 5.68964 5.68646C5.52763 5.84743 5.33487 5.97413 5.12285 6.05903C4.91083 6.14392 4.68389 6.18525 4.45556 6.18057ZM17.0444 17.0639H14.0389V11.8458C14.0389 10.307 13.3847 9.83196 12.5403 9.83196C11.6486 9.83196 10.7736 10.5042 10.7736 11.8847V17.0639H7.76667V7.51112H10.6583V8.83473H10.6972C10.9875 8.24723 12.0042 7.24307 13.5556 7.24307C15.2333 7.24307 17.0458 8.2389 17.0458 11.1556L17.0444 17.0639Z" fill="#0A66C2"/>
</g>
<defs>
<clipPath id="clip0_8383_246312">
<rect width="20" height="20" fill="white" transform="translate(0 0.0180664)"/>
</clipPath>
</defs>
</svg>
