<svg width="49" height="48" viewBox="0 0 49 48" fill="none" xmlns="http://www.w3.org/2000/svg">
<mask id="mask0_5452_19498" style="mask-type:alpha" maskUnits="userSpaceOnUse" x="0" y="0" width="49" height="48">
<rect x="0.5" width="48" height="48" fill="#D9D9D9"/>
</mask>
<g mask="url(#mask0_5452_19498)">
<path d="M22.3984 25.4L19.4984 22.55C19.1318 22.1833 18.6734 22 18.1234 22C17.5734 22 17.0984 22.2 16.6984 22.6C16.3318 22.9667 16.1484 23.4333 16.1484 24C16.1484 24.5667 16.3318 25.0333 16.6984 25.4L20.9984 29.7C21.3984 30.1 21.8651 30.3 22.3984 30.3C22.9318 30.3 23.3984 30.1 23.7984 29.7L32.2984 21.2C32.6984 20.8 32.8901 20.3333 32.8734 19.8C32.8568 19.2667 32.6651 18.8 32.2984 18.4C31.8984 18 31.4234 17.7917 30.8734 17.775C30.3234 17.7583 29.8484 17.95 29.4484 18.35L22.3984 25.4ZM16.7984 43.5L13.8984 38.6L8.39844 37.4C7.89844 37.3 7.49844 37.0417 7.19844 36.625C6.89844 36.2083 6.78177 35.75 6.84844 35.25L7.39844 29.6L3.64844 25.3C3.3151 24.9333 3.14844 24.5 3.14844 24C3.14844 23.5 3.3151 23.0667 3.64844 22.7L7.39844 18.4L6.84844 12.75C6.78177 12.25 6.89844 11.7917 7.19844 11.375C7.49844 10.9583 7.89844 10.7 8.39844 10.6L13.8984 9.39999L16.7984 4.49999C17.0651 4.06666 17.4318 3.77499 17.8984 3.62499C18.3651 3.47499 18.8318 3.49999 19.2984 3.69999L24.4984 5.89999L29.6984 3.69999C30.1651 3.49999 30.6318 3.47499 31.0984 3.62499C31.5651 3.77499 31.9318 4.06666 32.1984 4.49999L35.0984 9.39999L40.5984 10.6C41.0984 10.7 41.4984 10.9583 41.7984 11.375C42.0984 11.7917 42.2151 12.25 42.1484 12.75L41.5984 18.4L45.3484 22.7C45.6818 23.0667 45.8484 23.5 45.8484 24C45.8484 24.5 45.6818 24.9333 45.3484 25.3L41.5984 29.6L42.1484 35.25C42.2151 35.75 42.0984 36.2083 41.7984 36.625C41.4984 37.0417 41.0984 37.3 40.5984 37.4L35.0984 38.6L32.1984 43.5C31.9318 43.9333 31.5651 44.225 31.0984 44.375C30.6318 44.525 30.1651 44.5 29.6984 44.3L24.4984 42.1L19.2984 44.3C18.8318 44.5 18.3651 44.525 17.8984 44.375C17.4318 44.225 17.0651 43.9333 16.7984 43.5Z" fill="#1F1F2F"/>
</g>
</svg>
