<svg width="20" height="20" viewBox="0 0 20 20" fill="none" xmlns="http://www.w3.org/2000/svg">
    <mask id="mask0_5452_14580" style="mask-type:alpha" maskUnits="userSpaceOnUse" x="0" y="0" width="20" height="20">
        <rect width="20" height="20" fill="#D9D9D9"/>
    </mask>
    <g mask="url(#mask0_5452_14580)">
        <path d="M5.83781 12.3126C5.19642 12.3126 4.65003 12.0881 4.19865 11.6392C3.74726 11.1902 3.52156 10.6451 3.52156 10.0038C3.52156 9.36244 3.74601 8.81605 4.1949 8.36466C4.64392 7.91327 5.18906 7.68758 5.83031 7.68758C6.4717 7.68758 7.01809 7.91202 7.46948 8.36091C7.92087 8.80994 8.14656 9.35508 8.14656 9.99633C8.14656 10.6377 7.92212 11.1841 7.47323 11.6355C7.0242 12.0869 6.47906 12.3126 5.83781 12.3126ZM5.83406 15.1545C6.88503 15.1545 7.8683 14.8362 8.78385 14.1997C9.69927 13.563 10.3234 12.7367 10.6561 11.7207H10.9386L11.8839 12.6707C11.979 12.7625 12.0896 12.8317 12.2157 12.8784C12.3417 12.9251 12.4669 12.9484 12.5914 12.9484C12.7157 12.9484 12.8366 12.9251 12.9541 12.8784C13.0716 12.8317 13.1772 12.7615 13.2709 12.6678L14.282 11.6567L15.2299 12.6486C15.3266 12.7453 15.4327 12.8178 15.5484 12.8661C15.6643 12.9143 15.7844 12.9401 15.9089 12.9434C16.0332 12.9467 16.158 12.9251 16.2832 12.8786C16.4085 12.8321 16.5219 12.7638 16.6234 12.6736L18.6755 10.667C18.7704 10.5711 18.8446 10.461 18.8982 10.3365C18.9517 10.2122 18.9784 10.0879 18.9784 9.96341C18.9784 9.83897 18.9522 9.71327 18.8997 9.58633C18.8472 9.45938 18.7716 9.34522 18.6728 9.24383L17.9418 8.51779C17.848 8.42445 17.743 8.35445 17.6266 8.30779C17.5102 8.26112 17.3878 8.23779 17.2595 8.23779H10.6511C10.3284 7.24959 9.71802 6.43716 8.8201 5.80049C7.92205 5.16397 6.9267 4.8457 5.83406 4.8457C4.40198 4.8457 3.1849 5.34674 2.18281 6.34883C1.18073 7.35091 0.679688 8.56799 0.679688 10.0001C0.679688 11.4288 1.18156 12.6451 2.18531 13.6488C3.18906 14.6526 4.40531 15.1545 5.83406 15.1545Z"
              fill="currentColor"/>
    </g>
</svg>
