<svg width="20" height="20" viewBox="0 0 20 20" fill="none" xmlns="http://www.w3.org/2000/svg">
    <mask id="mask0_5452_14602" style="mask-type:alpha" maskUnits="userSpaceOnUse" x="0" y="0" width="20" height="20">
        <rect width="20" height="20" fill="#D9D9D9"/>
    </mask>
    <g mask="url(#mask0_5452_14602)">
        <path fill-rule="evenodd" clip-rule="evenodd"
              d="M6.60658 2.90229C6.87947 2.17884 6.51421 1.37116 5.79077 1.09828C5.06732 0.825398 4.25964 1.19065 3.98676 1.9141L2.08392 6.95877C1.71026 7.94939 1.70632 9.04153 2.07283 10.0348L3.86368 14.8882C3.92832 15.2164 4.08432 15.5042 4.33167 15.7515C4.66653 16.0864 5.07549 16.2538 5.55854 16.2538H14.439C14.922 16.2538 15.331 16.0864 15.6658 15.7515C16.0007 15.4167 16.1681 15.0077 16.1681 14.5247V14.0745C16.1681 13.7185 16.073 13.3822 15.8827 13.0655C15.6926 12.749 15.4298 12.4938 15.0944 12.2999C14.3272 11.8521 13.5098 11.5093 12.6423 11.2715C12.14 11.1339 11.6331 11.0361 11.1217 10.9781C9.91027 10.7269 8.67571 10.6001 7.43726 10.6001H5.49881C5.4219 10.6001 5.34636 10.6063 5.27267 10.6183L4.69971 9.06553C4.56643 8.70433 4.56786 8.30719 4.70374 7.94697L6.60658 2.90229ZM8.26546 8.99259C8.88032 9.60745 9.62935 9.91488 10.5125 9.91488C11.3957 9.91488 12.1448 9.60745 12.7596 8.99259C13.3745 8.37773 13.6819 7.6287 13.6819 6.7455C13.6819 5.86245 13.3745 5.11425 12.7596 4.50092C12.1448 3.88773 11.3957 3.58113 10.5125 3.58113C9.62935 3.58113 8.88032 3.88773 8.26546 4.50092C7.6506 5.11425 7.34316 5.86245 7.34316 6.7455C7.34316 7.6287 7.6506 8.37773 8.26546 8.99259Z"
              fill="currentColor"/>
    </g>
</svg>
