<svg width="20" height="20" viewBox="0 0 20 20" fill="none" xmlns="http://www.w3.org/2000/svg">
<mask id="mask0_11321_34360" style="mask-type:alpha" maskUnits="userSpaceOnUse" x="0" y="0" width="20" height="20">
<rect width="20" height="20" fill="#D9D9D9"/>
</mask>
<g mask="url(#mask0_11321_34360)">
<path d="M14.8377 9.07522H13.9175C13.6938 9.07522 13.5062 8.99994 13.3548 8.84939C13.2034 8.69883 13.1277 8.51231 13.1277 8.28981C13.1277 8.06717 13.2034 7.87911 13.3548 7.72564C13.5062 7.57217 13.6938 7.49543 13.9175 7.49543H14.8377V6.57522C14.8377 6.35147 14.913 6.1639 15.0635 6.01251C15.2141 5.86112 15.4007 5.78543 15.6233 5.78543C15.8458 5.78543 16.0338 5.86112 16.1873 6.01251C16.3408 6.1639 16.4175 6.35147 16.4175 6.57522V7.49543H17.3377C17.5616 7.49543 17.7492 7.57071 17.9006 7.72126C18.052 7.87182 18.1277 8.05842 18.1277 8.28106C18.1277 8.50356 18.052 8.69154 17.9006 8.84501C17.7492 8.99849 17.5616 9.07522 17.3377 9.07522H16.4175V9.99543C16.4175 10.2193 16.3422 10.407 16.1917 10.5583C16.0411 10.7097 15.8546 10.7854 15.6321 10.7854C15.4094 10.7854 15.2214 10.7097 15.0679 10.5583C14.9144 10.407 14.8377 10.2193 14.8377 9.99543V9.07522ZM8.01313 9.91481C7.12993 9.91481 6.3809 9.60737 5.76604 8.99251C5.15118 8.37765 4.84375 7.62862 4.84375 6.74543C4.84375 5.86237 5.15118 5.11418 5.76604 4.50085C6.3809 3.88765 7.12993 3.58105 8.01313 3.58105C8.89618 3.58105 9.64521 3.88765 10.2602 4.50085C10.8751 5.11418 11.1825 5.86237 11.1825 6.74543C11.1825 7.62862 10.8751 8.37765 10.2602 8.99251C9.64521 9.60737 8.89618 9.91481 8.01313 9.91481ZM1.84375 14.5246V14.1577C1.84375 13.7687 1.93917 13.4112 2.13 13.0852C2.32083 12.7591 2.58333 12.499 2.9175 12.3048C3.69139 11.857 4.50847 11.5134 5.36875 11.274C6.22917 11.0345 7.11063 10.9148 8.01313 10.9148C8.92188 10.9148 9.80653 11.0337 10.6671 11.2715C11.5276 11.5092 12.3415 11.852 13.1085 12.2998C13.4427 12.4936 13.7053 12.753 13.8963 13.0781C14.0871 13.4033 14.1825 13.7631 14.1825 14.1577V14.5246C14.1825 15.0035 14.014 15.4114 13.6769 15.7483C13.3398 16.0853 12.9317 16.2538 12.4525 16.2538H3.56688C3.08771 16.2538 2.68076 16.0853 2.34604 15.7483C2.01118 15.4114 1.84375 15.0035 1.84375 14.5246Z" fill="currentColor"/>
</g>
</svg>
