<svg width="20" height="20" viewBox="0 0 20 20" fill="none" xmlns="http://www.w3.org/2000/svg">
<mask id="mask0_5452_14557" style="mask-type:alpha" maskUnits="userSpaceOnUse" x="0" y="0" width="20" height="20">
<rect width="20" height="20" fill="#D9D9D9"/>
</mask>
<g mask="url(#mask0_5452_14557)">
<path d="M9.99563 17C9.58188 17 9.22917 16.8527 8.9375 16.5581C8.64583 16.2635 8.5 15.9094 8.5 15.4956C8.5 15.0819 8.64729 14.7292 8.94187 14.4375C9.23646 14.1458 9.59062 14 10.0044 14C10.4181 14 10.7708 14.1473 11.0625 14.4419C11.3542 14.7365 11.5 15.0906 11.5 15.5044C11.5 15.9181 11.3527 16.2708 11.0581 16.5625C10.7635 16.8542 10.4094 17 9.99563 17ZM9.99563 12C9.58188 12 9.22917 11.853 8.9375 11.559C8.64583 11.2651 8.5 10.9117 8.5 10.4988V4.49417C8.5 4.08139 8.64729 3.72917 8.94187 3.4375C9.23646 3.14583 9.59062 3 10.0044 3C10.4181 3 10.7708 3.14701 11.0625 3.44104C11.3542 3.73493 11.5 4.08833 11.5 4.50125V10.5058C11.5 10.9186 11.3527 11.2708 11.0581 11.5625C10.7635 11.8542 10.4094 12 9.99563 12Z" fill="#1F1F2F"/>
</g>
</svg>
