<svg width="20" height="20" viewBox="0 0 20 20" fill="none" xmlns="http://www.w3.org/2000/svg">
<mask id="mask0_5452_14576" style="mask-type:alpha" maskUnits="userSpaceOnUse" x="0" y="0" width="20" height="20">
<rect width="20" height="20" fill="#D9D9D9"/>
</mask>
<g mask="url(#mask0_5452_14576)">
<path d="M10.0014 9.91578C9.11821 9.91578 8.36918 9.60835 7.75432 8.99349C7.13946 8.37863 6.83203 7.6296 6.83203 6.74641C6.83203 5.86335 7.13946 5.11516 7.75432 4.50182C8.36918 3.88863 9.11821 3.58203 10.0014 3.58203C10.8846 3.58203 11.6336 3.88863 12.2485 4.50182C12.8634 5.11516 13.1708 5.86335 13.1708 6.74641C13.1708 7.6296 12.8634 8.37863 12.2485 8.99349C11.6336 9.60835 10.8846 9.91578 10.0014 9.91578ZM3.83203 14.5256V14.0754C3.83203 13.7259 3.92717 13.3956 4.11745 13.0843C4.30759 12.7731 4.57036 12.5136 4.90578 12.3058C5.67967 11.858 6.50036 11.5144 7.36786 11.2749C8.23523 11.0355 9.11307 10.9158 10.0014 10.9158C10.8963 10.9158 11.7774 11.0347 12.6449 11.2724C13.5124 11.5102 14.3298 11.853 15.097 12.3008C15.4324 12.4947 15.6952 12.7499 15.8854 13.0664C16.0756 13.3831 16.1708 13.7194 16.1708 14.0754V14.5256C16.1708 15.0086 16.0034 15.4176 15.6685 15.7524C15.3336 16.0873 14.9247 16.2547 14.4416 16.2547H5.5612C5.07814 16.2547 4.66918 16.0873 4.33432 15.7524C3.99946 15.4176 3.83203 15.0086 3.83203 14.5256Z" fill="#1F1F2F"/>
</g>
</svg>
