<svg width="20" height="20" viewBox="0 0 20 20" fill="none" xmlns="http://www.w3.org/2000/svg">
<mask id="mask0_5452_14604" style="mask-type:alpha" maskUnits="userSpaceOnUse" x="0" y="0" width="20" height="20">
<rect width="20" height="20" fill="#D9D9D9"/>
</mask>
<g mask="url(#mask0_5452_14604)">
<path d="M11.6284 12.3014C11.8645 12.3014 12.0624 12.2215 12.2221 12.0618C12.3819 11.9021 12.4617 11.7042 12.4617 11.468C12.4617 11.2319 12.3819 11.034 12.2221 10.8743C12.0624 10.7146 11.8645 10.6347 11.6284 10.6347C11.3923 10.6347 11.1944 10.7146 11.0346 10.8743C10.8749 11.034 10.7951 11.2319 10.7951 11.468C10.7951 11.7042 10.8749 11.9021 11.0346 12.0618C11.1944 12.2215 11.3923 12.3014 11.6284 12.3014ZM11.634 9.84451C11.783 9.84451 11.9166 9.78978 12.0346 9.68034C12.1527 9.57089 12.2305 9.42951 12.2682 9.25617C12.3026 9.10617 12.3546 8.97034 12.424 8.84867C12.4935 8.72687 12.6121 8.58902 12.7801 8.43513C13.2212 8.00791 13.5189 7.66416 13.6734 7.40388C13.8278 7.1436 13.9051 6.85708 13.9051 6.5443C13.9051 5.91263 13.6976 5.40749 13.2826 5.02888C12.8676 4.65027 12.3112 4.46096 11.6134 4.46096C11.1728 4.46096 10.7745 4.56166 10.4184 4.76305C10.0623 4.96444 9.77311 5.24402 9.55089 5.6018C9.48477 5.7268 9.48248 5.86569 9.54401 6.01846C9.6054 6.17124 9.71186 6.28235 9.86339 6.3518C10.0023 6.40735 10.1412 6.4143 10.2801 6.37263C10.4189 6.33096 10.537 6.24069 10.6342 6.1018C10.7453 5.94902 10.8885 5.82832 11.0638 5.73971C11.2391 5.6511 11.4247 5.6068 11.6207 5.6068C11.9428 5.6068 12.2026 5.69624 12.4003 5.87513C12.5979 6.05402 12.6967 6.28596 12.6967 6.57096C12.6967 6.76541 12.6377 6.95027 12.5196 7.12555C12.4016 7.30082 12.1273 7.59152 11.6967 7.99763C11.4732 8.21374 11.3173 8.41027 11.229 8.58721C11.1408 8.76416 11.0812 8.98353 11.0501 9.24534C11.0328 9.40312 11.0819 9.54242 11.1971 9.66326C11.3124 9.78409 11.458 9.84451 11.634 9.84451ZM6.67318 15.0555C6.19429 15.0555 5.78637 14.8871 5.44943 14.5501C5.11248 14.2132 4.94401 13.8053 4.94401 13.3264V3.44596C4.94401 2.96707 5.11248 2.55916 5.44943 2.22221C5.78637 1.88527 6.19429 1.7168 6.67318 1.7168H16.5536C17.0325 1.7168 17.4404 1.88527 17.7773 2.22221C18.1143 2.55916 18.2828 2.96707 18.2828 3.44596V13.3264C18.2828 13.8053 18.1143 14.2132 17.7773 14.5501C17.4404 14.8871 17.0325 15.0555 16.5536 15.0555H6.67318ZM3.44401 18.2847C2.96512 18.2847 2.5572 18.1162 2.22026 17.7793C1.88332 17.4424 1.71484 17.0344 1.71484 16.5555V5.81055C1.71484 5.56819 1.7979 5.36346 1.96401 5.19638C2.13026 5.02944 2.33394 4.94596 2.57505 4.94596C2.81616 4.94596 3.0213 5.02944 3.19047 5.19638C3.3595 5.36346 3.44401 5.56819 3.44401 5.81055V16.5555H14.189C14.4314 16.5555 14.6361 16.6386 14.8032 16.8047C14.9701 16.971 15.0536 17.1746 15.0536 17.4158C15.0536 17.6569 14.9701 17.862 14.8032 18.0312C14.6361 18.2002 14.4314 18.2847 14.189 18.2847H3.44401Z" fill="#1F1F2F"/>
</g>
</svg>
