<svg width="20" height="20" viewBox="0 0 20 20" fill="none" xmlns="http://www.w3.org/2000/svg">
<mask id="mask0_5452_14544" style="mask-type:alpha" maskUnits="userSpaceOnUse" x="0" y="0" width="20" height="20">
<rect width="20" height="20" fill="#D9D9D9"/>
</mask>
<g mask="url(#mask0_5452_14544)">
<path d="M1.88672 9.50589C1.88672 7.94519 2.432 6.61845 3.52255 5.52568C4.61297 4.43304 5.93922 3.88672 7.5013 3.88672H12.5013C14.0634 3.88672 15.3896 4.43179 16.4801 5.52193C17.5706 6.61207 18.1159 7.93797 18.1159 9.49964C18.1159 10.848 17.6953 12.0435 16.854 13.0863C16.0129 14.1289 14.9228 14.7773 13.5836 15.0315C13.3162 15.0844 13.0789 15.0308 12.8717 14.8707C12.6646 14.7105 12.5611 14.5026 12.5611 14.2469C12.5611 13.9944 12.6544 13.7871 12.8409 13.6248C13.0276 13.4628 13.2453 13.3407 13.494 13.2586C14.3548 13.0442 15.0522 12.5889 15.5861 11.893C16.1198 11.1971 16.3867 10.3999 16.3867 9.5013C16.3867 8.4245 16.0083 7.50776 15.2515 6.75109C14.4948 5.99429 13.5781 5.61589 12.5013 5.61589H7.5013C6.4245 5.61589 5.50776 5.9947 4.75109 6.75234C3.99429 7.50998 3.61589 8.4279 3.61589 9.50609C3.61589 10.5376 3.96436 11.4257 4.6613 12.1703C5.35825 12.9148 6.21693 13.312 7.23734 13.3617H7.82734L7.34005 12.8744C7.16741 12.7018 7.092 12.5031 7.1138 12.2784C7.13575 12.0538 7.23137 11.8568 7.40068 11.6873C7.58012 11.508 7.78464 11.4184 8.01422 11.4184C8.2438 11.4184 8.44832 11.508 8.62776 11.6873L10.5653 13.6436C10.7379 13.8178 10.8242 14.0199 10.8242 14.2501C10.8242 14.4803 10.7362 14.681 10.5603 14.8519L8.60193 16.8103C8.42248 16.9896 8.21894 17.0741 7.9913 17.0638C7.76366 17.0535 7.56186 16.9621 7.38589 16.7894C7.21644 16.6133 7.13172 16.4095 7.13172 16.178C7.13172 15.9463 7.2145 15.7482 7.38005 15.5836L7.85734 15.1109H7.26714C5.75158 15.0744 4.47596 14.5121 3.44026 13.4242C2.40457 12.3363 1.88672 11.0302 1.88672 9.50589Z" fill="currentColor"/>
</g>
</svg>
