<svg width="20" height="20" viewBox="0 0 20 20" fill="none" xmlns="http://www.w3.org/2000/svg">
    <mask id="mask0_5452_14583" style="mask-type:alpha" maskUnits="userSpaceOnUse" x="-1" y="0" width="21" height="21">
        <rect x="-0.5" y="0.431641" width="20" height="20" fill="#D9D9D9"/>
    </mask>
    <g mask="url(#mask0_5452_14583)">
        <path d="M9.50141 18.5073C9.40807 18.5073 9.31314 18.503 9.21661 18.4944C9.11995 18.4858 9.03023 18.466 8.94745 18.4348C7.10481 17.8311 5.62488 16.7054 4.50766 15.0578C3.39057 13.41 2.83203 11.6248 2.83203 9.70214V5.99693C2.83203 5.62776 2.9321 5.29825 3.13224 5.00839C3.33252 4.71852 3.60168 4.50971 3.93974 4.38193L8.87995 2.49026C9.08384 2.41082 9.29099 2.37109 9.50141 2.37109C9.71182 2.37109 9.91898 2.41082 10.1229 2.49026L15.0631 4.38193C15.4011 4.50971 15.6703 4.71852 15.8706 5.00839C16.0707 5.29825 16.1708 5.62776 16.1708 5.99693V9.70214C16.1708 11.6248 15.6122 13.41 14.4952 15.0578C13.3779 16.7054 11.898 17.8311 10.0554 18.4348C9.97259 18.466 9.88287 18.4858 9.7862 18.4944C9.68967 18.503 9.59474 18.5073 9.50141 18.5073Z"
              fill="currentColor"/>
    </g>
</svg>
