<svg width="20" height="20" viewBox="0 0 20 20" fill="none" xmlns="http://www.w3.org/2000/svg">
<mask id="mask0_5452_14549" style="mask-type:alpha" maskUnits="userSpaceOnUse" x="0" y="0" width="20" height="20">
<rect width="20" height="20" fill="#D9D9D9"/>
</mask>
<g mask="url(#mask0_5452_14549)">
<path d="M9.16548 18C8.92937 18 8.72798 17.9306 8.56132 17.7917C8.39465 17.6528 8.29048 17.4722 8.24882 17.25L7.93632 15.625C7.61687 15.5 7.30784 15.3542 7.00923 15.1875C6.71062 15.0208 6.42937 14.8264 6.16548 14.6042L4.60298 15.1458C4.39465 15.2153 4.18284 15.2118 3.96757 15.1354C3.75229 15.059 3.58909 14.9236 3.47798 14.7292L2.64465 13.2708C2.53354 13.0764 2.49882 12.8715 2.54048 12.6562C2.58215 12.441 2.68632 12.2569 2.85298 12.1042L4.08215 11.0208C4.05437 10.8542 4.03354 10.6875 4.01965 10.5208C4.00576 10.3542 3.99882 10.1806 3.99882 10C3.99882 9.81944 4.00576 9.64583 4.01965 9.47917C4.03354 9.3125 4.05437 9.14583 4.08215 8.97917L2.85298 7.89583C2.68632 7.74306 2.58215 7.55903 2.54048 7.34375C2.49882 7.12847 2.53354 6.92361 2.64465 6.72917L3.47798 5.27083C3.58909 5.07639 3.75229 4.94097 3.96757 4.86458C4.18284 4.78819 4.39465 4.78472 4.60298 4.85417L6.16548 5.39583C6.42937 5.17361 6.71062 4.97917 7.00923 4.8125C7.30784 4.64583 7.61687 4.5 7.93632 4.375L8.24882 2.75C8.29048 2.52778 8.39465 2.34722 8.56132 2.20833C8.72798 2.06944 8.92937 2 9.16548 2H10.8321C11.0683 2 11.2696 2.06944 11.4363 2.20833C11.603 2.34722 11.7071 2.52778 11.7488 2.75L12.0613 4.375C12.3808 4.5 12.6898 4.64583 12.9884 4.8125C13.287 4.97917 13.5683 5.17361 13.8321 5.39583L15.3946 4.85417C15.603 4.78472 15.8148 4.78819 16.0301 4.86458C16.2453 4.94097 16.4085 5.07639 16.5196 5.27083L17.353 6.72917C17.4641 6.92361 17.4988 7.12847 17.4571 7.34375C17.4155 7.55903 17.3113 7.74306 17.1446 7.89583L15.9155 8.97917C15.9433 9.14583 15.9641 9.3125 15.978 9.47917C15.9919 9.64583 15.9988 9.81944 15.9988 10C15.9988 10.1806 15.9919 10.3542 15.978 10.5208C15.9641 10.6875 15.9433 10.8542 15.9155 11.0208L17.1446 12.1042C17.3113 12.2569 17.4155 12.441 17.4571 12.6562C17.4988 12.8715 17.4641 13.0764 17.353 13.2708L16.5196 14.7292C16.4085 14.9236 16.2453 15.059 16.0301 15.1354C15.8148 15.2118 15.603 15.2153 15.3946 15.1458L13.8321 14.6042C13.5683 14.8264 13.287 15.0208 12.9884 15.1875C12.6898 15.3542 12.3808 15.5 12.0613 15.625L11.7488 17.25C11.7071 17.4722 11.603 17.6528 11.4363 17.7917C11.2696 17.9306 11.0683 18 10.8321 18H9.16548ZM9.99882 13C10.8321 13 11.5405 12.7083 12.1238 12.125C12.7071 11.5417 12.9988 10.8333 12.9988 10C12.9988 9.16667 12.7071 8.45833 12.1238 7.875C11.5405 7.29167 10.8321 7 9.99882 7C9.16548 7 8.45715 7.29167 7.87382 7.875C7.29048 8.45833 6.99882 9.16667 6.99882 10C6.99882 10.8333 7.29048 11.5417 7.87382 12.125C8.45715 12.7083 9.16548 13 9.99882 13Z" fill="currentColor"/>
</g>
</svg>
