<svg width="20" height="20" viewBox="0 0 20 20" fill="none" xmlns="http://www.w3.org/2000/svg">
    <mask id="mask0_5452_14578" style="mask-type:alpha" maskUnits="userSpaceOnUse" x="0" y="0" width="20" height="20">
        <rect width="20" height="20" fill="#D9D9D9"/>
    </mask>
    <g mask="url(#mask0_5452_14578)">
        <path d="M10.0009 13.5001C10.9731 13.5001 11.7995 13.1598 12.4801 12.4792C13.1606 11.7987 13.5009 10.9723 13.5009 10.0001C13.5009 9.02786 13.1606 8.20147 12.4801 7.52091C11.7995 6.84036 10.9731 6.50008 10.0009 6.50008C9.02866 6.50008 8.20227 6.84036 7.52172 7.52091C6.84116 8.20147 6.50089 9.02786 6.50089 10.0001C6.50089 10.9723 6.84116 11.7987 7.52172 12.4792C8.20227 13.1598 9.02866 13.5001 10.0009 13.5001ZM10.0017 11.8955C9.47547 11.8955 9.0279 11.7113 8.65901 11.343C8.28998 10.9745 8.10547 10.5272 8.10547 10.0009C8.10547 9.47466 8.28964 9.02709 8.65797 8.6582C9.02644 8.28918 9.4738 8.10466 10.0001 8.10466C10.5263 8.10466 10.9739 8.28883 11.3428 8.65716C11.7118 9.02563 11.8963 9.47299 11.8963 9.99924C11.8963 10.5255 11.7121 10.9731 11.3438 11.342C10.9753 11.711 10.528 11.8955 10.0017 11.8955ZM10.0009 16.1545C8.17547 16.1545 6.49582 15.6685 4.96193 14.6965C3.42818 13.7247 2.21352 12.4372 1.31797 10.8338C1.23852 10.7062 1.18325 10.5723 1.15214 10.4322C1.12102 10.2922 1.10547 10.1497 1.10547 10.0049C1.10547 9.86001 1.12102 9.71598 1.15214 9.57279C1.18325 9.42945 1.23852 9.29397 1.31797 9.16633C2.21352 7.56299 3.42818 6.27542 4.96193 5.30362C6.49582 4.33167 8.17547 3.8457 10.0009 3.8457C11.8263 3.8457 13.506 4.33167 15.0398 5.30362C16.5736 6.27542 17.7882 7.56299 18.6838 9.16633C18.7632 9.29397 18.8185 9.42786 18.8496 9.56799C18.8807 9.70799 18.8963 9.85042 18.8963 9.99529C18.8963 10.1401 18.8807 10.2842 18.8496 10.4274C18.8185 10.5707 18.7632 10.7062 18.6838 10.8338C17.7882 12.4372 16.5736 13.7247 15.0398 14.6965C13.506 15.6685 11.8263 16.1545 10.0009 16.1545Z"
              fill="currentColor"/>
    </g>
</svg>
