<svg width="20" height="20" viewBox="0 0 20 20" fill="none" xmlns="http://www.w3.org/2000/svg">
<mask id="mask0_5452_14562" style="mask-type:alpha" maskUnits="userSpaceOnUse" x="0" y="0" width="20" height="20">
<rect width="20" height="20" fill="#D9D9D9"/>
</mask>
<g mask="url(#mask0_5452_14562)">
<path d="M10.0014 12.1472L11.9864 13.6993C12.1639 13.8303 12.343 13.8338 12.5237 13.7097C12.7045 13.5857 12.7622 13.4201 12.6966 13.2129L11.9181 10.7097L13.9304 9.29849C14.1063 9.17085 14.1659 9.00606 14.1089 8.80412C14.0521 8.60231 13.9148 8.50141 13.697 8.50141H11.2097L10.4312 5.81578C10.3576 5.59134 10.2185 5.47911 10.0139 5.47911C9.80932 5.47911 9.67023 5.59134 9.59661 5.81578L8.79307 8.50141H6.35745C6.133 8.50141 5.99238 8.60231 5.93557 8.80412C5.87863 9.00606 5.9396 9.17349 6.11849 9.30641L8.08474 10.7097L7.3062 13.2129C7.24064 13.4201 7.29828 13.5857 7.47911 13.7097C7.65981 13.8338 7.83891 13.8303 8.01641 13.6993L10.0014 12.1472ZM9.99745 18.1708C8.86245 18.1708 7.79884 17.9566 6.80661 17.5283C5.81425 17.0999 4.95099 16.5184 4.21682 15.7835C3.48266 15.0485 2.90168 14.1844 2.47391 13.1912C2.04599 12.1979 1.83203 11.1346 1.83203 10.0014C1.83203 8.86821 2.04599 7.80495 2.47391 6.81161C2.90168 5.81842 3.48266 4.95432 4.21682 4.21932C4.95099 3.48446 5.81425 2.90287 6.80661 2.47453C7.79884 2.0462 8.86266 1.83203 9.99807 1.83203C11.1335 1.83203 12.1988 2.04599 13.1939 2.47391C14.1892 2.90182 15.055 3.48286 15.7914 4.21703C16.5277 4.95134 17.1083 5.81585 17.5333 6.81057C17.9583 7.80543 18.1708 8.87037 18.1708 10.0054C18.1708 11.1404 17.9568 12.2048 17.5289 13.1987C17.101 14.1926 16.5199 15.0572 15.7858 15.7927C15.0515 16.5281 14.187 17.1083 13.1922 17.5333C12.1974 17.9583 11.1324 18.1708 9.99745 18.1708Z" fill="currentColor"/>
</g>
</svg>
