<svg width="20" height="20" viewBox="0 0 20 20" fill="none" xmlns="http://www.w3.org/2000/svg">
<mask id="mask0_5452_14548" style="mask-type:alpha" maskUnits="userSpaceOnUse" x="0" y="0" width="20" height="20">
<rect width="20" height="20" fill="#D9D9D9"/>
</mask>
<g mask="url(#mask0_5452_14548)">
<path d="M5.49563 16C5.08188 16 4.72917 15.8529 4.4375 15.5588C4.14583 15.2647 4 14.9112 4 14.4981V11.4946C4 11.0815 4.14729 10.7292 4.44188 10.4375C4.73646 10.1458 5.09062 10 5.50437 10C5.91812 10 6.27083 10.1471 6.5625 10.4412C6.85417 10.7353 7 11.0888 7 11.5019V14.5054C7 14.9185 6.85271 15.2708 6.55813 15.5625C6.26354 15.8542 5.90938 16 5.49563 16ZM9.99563 16C9.58188 16 9.22917 15.8531 8.9375 15.5592C8.64583 15.2653 8.5 14.9119 8.5 14.4992V5.49417C8.5 5.08139 8.64729 4.72917 8.94187 4.4375C9.23646 4.14583 9.59062 4 10.0044 4C10.4181 4 10.7708 4.14694 11.0625 4.44083C11.3542 4.73472 11.5 5.08806 11.5 5.50083V14.5058C11.5 14.9186 11.3527 15.2708 11.0581 15.5625C10.7635 15.8542 10.4094 16 9.99563 16ZM14.4956 16C14.0819 16 13.7292 15.8531 13.4375 15.5594C13.1458 15.2656 13 14.9125 13 14.5V9.5C13 9.0875 13.1473 8.73438 13.4419 8.44063C13.7365 8.14688 14.0906 8 14.5044 8C14.9181 8 15.2708 8.14688 15.5625 8.44063C15.8542 8.73438 16 9.0875 16 9.5V14.5C16 14.9125 15.8527 15.2656 15.5581 15.5594C15.2635 15.8531 14.9094 16 14.4956 16Z" fill="currentColor"/>
</g>
</svg>
