<svg width="20" height="20" viewBox="0 0 20 20" fill="none" xmlns="http://www.w3.org/2000/svg">
<mask id="mask0_6084_57169" style="mask-type:alpha" maskUnits="userSpaceOnUse" x="0" y="0" width="20" height="20">
<rect width="20" height="20" fill="#D9D9D9"/>
</mask>
<g mask="url(#mask0_6084_57169)">
<path d="M4.5 16C4.0875 16 3.73437 15.8531 3.44062 15.5592C3.14687 15.2653 3 14.9119 3 14.4992V5.49417C3 5.08139 3.14687 4.72917 3.44062 4.4375C3.73437 4.14583 4.0875 4 4.5 4H15.5C15.9125 4 16.2656 4.14694 16.5594 4.44083C16.8531 4.73472 17 5.08806 17 5.50083V14.5058C17 14.9186 16.8531 15.2708 16.5594 15.5625C16.2656 15.8542 15.9125 16 15.5 16H4.5ZM6.10417 12.3333H8.45813C8.68049 12.3333 8.86458 12.2592 9.01042 12.111C9.15625 11.963 9.22917 11.7794 9.22917 11.5604V11.174C9.22917 11.058 9.1875 10.9583 9.10417 10.875C9.02083 10.7917 8.92361 10.75 8.8125 10.75H8.47917C8.36806 10.75 8.27083 10.7917 8.1875 10.875C8.10417 10.9583 8.0625 11.0556 8.0625 11.1667H6.5V8.83333H8.0625C8.0625 8.94444 8.10417 9.04167 8.1875 9.125C8.27083 9.20833 8.36806 9.25 8.47917 9.25H8.8125C8.92361 9.25 9.02083 9.20833 9.10417 9.125C9.1875 9.04167 9.22917 8.94201 9.22917 8.82604V8.43958C9.22917 8.22055 9.15528 8.03701 9.0075 7.88896C8.85986 7.74076 8.67681 7.66667 8.45833 7.66667H6.10438C5.88201 7.66667 5.69792 7.74104 5.55208 7.88979C5.40625 8.0384 5.33333 8.22257 5.33333 8.44229V11.5454C5.33333 11.7651 5.40722 11.9514 5.555 12.1042C5.70264 12.2569 5.88569 12.3333 6.10417 12.3333ZM13.8958 7.66667H11.5419C11.3195 7.66667 11.1354 7.7425 10.9896 7.89417C10.8438 8.04597 10.7708 8.23403 10.7708 8.45833V11.5583C10.7708 11.7779 10.8447 11.9619 10.9925 12.1104C11.1403 12.259 11.3233 12.3333 11.5417 12.3333H13.8956C14.118 12.3333 14.3021 12.2592 14.4479 12.111C14.5938 11.963 14.6667 11.7794 14.6667 11.5604V11.174C14.6667 11.058 14.625 10.9583 14.5417 10.875C14.4583 10.7917 14.3611 10.75 14.25 10.75H13.9167C13.8056 10.75 13.7083 10.7917 13.625 10.875C13.5417 10.9583 13.5 11.0556 13.5 11.1667H11.9375V8.83333H13.5C13.5 8.94444 13.5417 9.04167 13.625 9.125C13.7083 9.20833 13.8056 9.25 13.9167 9.25H14.25C14.3611 9.25 14.4583 9.20833 14.5417 9.125C14.625 9.04167 14.6667 8.94201 14.6667 8.82604V8.43958C14.6667 8.22055 14.5928 8.03701 14.445 7.88896C14.2972 7.74076 14.1142 7.66667 13.8958 7.66667Z" fill="currentColor"/>
</g>
</svg>
