<svg width="20" height="20" viewBox="0 0 20 20" fill="none" xmlns="http://www.w3.org/2000/svg">
<mask id="mask0_6084_57174" style="mask-type:alpha" maskUnits="userSpaceOnUse" x="0" y="0" width="20" height="20">
<rect width="20" height="20" fill="#D9D9D9"/>
</mask>
<g mask="url(#mask0_6084_57174)">
<path d="M15.4805 17.5827L13.8763 15.9993H4.5013C4.01519 15.9993 3.64366 15.8709 3.38672 15.6139C3.12977 15.357 3.0013 14.9855 3.0013 14.4993V5.52018C3.0013 5.45074 3.00477 5.38477 3.01172 5.32227C3.01866 5.25977 3.02908 5.20768 3.04297 5.16602L2.39714 4.52018C2.24436 4.37199 2.16797 4.19608 2.16797 3.99247C2.16797 3.78872 2.24436 3.61046 2.39714 3.45768C2.54991 3.3049 2.72818 3.22852 2.93193 3.22852C3.13554 3.22852 3.31144 3.3049 3.45964 3.45768L16.543 16.541C16.6957 16.6888 16.7721 16.8612 16.7721 17.0581C16.7721 17.255 16.6957 17.4299 16.543 17.5827C16.3902 17.7355 16.2119 17.8118 16.0082 17.8118C15.8046 17.8118 15.6287 17.7355 15.4805 17.5827ZM6.10547 12.3327H8.4388C8.64714 12.3327 8.83116 12.2528 8.99089 12.0931C9.15061 11.9334 9.23047 11.7493 9.23047 11.541V11.166C9.23047 11.0549 9.1888 10.9577 9.10547 10.8743C9.02214 10.791 8.92491 10.7493 8.8138 10.7493H8.48047C8.36936 10.7493 8.27214 10.791 8.1888 10.8743C8.10547 10.9577 8.0638 11.0549 8.0638 11.166H6.5013V8.72852L5.73047 7.95768C5.61936 8.0549 5.52561 8.17643 5.44922 8.32227C5.37283 8.4681 5.33464 8.60352 5.33464 8.72852V11.541C5.33464 11.7493 5.41102 11.9334 5.5638 12.0931C5.71658 12.2528 5.89714 12.3327 6.10547 12.3327ZM17.0013 5.49935V13.0827C17.0013 13.4107 16.8451 13.6386 16.5326 13.7662C16.2201 13.8939 15.9457 13.8396 15.7096 13.6035L14.3346 12.2077C14.418 12.1243 14.4944 12.0306 14.5638 11.9264C14.6332 11.8223 14.668 11.6938 14.668 11.541V11.166C14.668 11.0549 14.6263 10.9577 14.543 10.8743C14.4596 10.791 14.3624 10.7493 14.2513 10.7493H13.918C13.8069 10.7493 13.7096 10.791 13.6263 10.8743C13.543 10.9577 13.5013 11.0549 13.5013 11.166V11.3743L11.9388 9.81185V8.83268H13.5013C13.5013 8.94379 13.543 9.04102 13.6263 9.12435C13.7096 9.20768 13.8069 9.24935 13.918 9.24935H14.2513C14.3624 9.24935 14.4596 9.20768 14.543 9.12435C14.6263 9.04102 14.668 8.94379 14.668 8.83268V8.43685C14.668 8.22852 14.5916 8.04796 14.4388 7.89518C14.286 7.7424 14.1055 7.66602 13.8971 7.66602H11.5534C11.332 7.66602 11.1464 7.73991 10.9967 7.88768C10.847 8.03546 10.7721 8.21852 10.7721 8.43685V8.64518L7.40443 5.27747C7.16346 5.0365 7.10832 4.76324 7.23901 4.45768C7.36957 4.15213 7.60283 3.99935 7.9388 3.99935H15.5013C15.9874 3.99935 16.3589 4.12782 16.6159 4.38477C16.8728 4.64171 17.0013 5.01324 17.0013 5.49935Z" fill="currentColor"/>
</g>
</svg>
