<svg width="20" height="20" viewBox="0 0 20 20" fill="none" xmlns="http://www.w3.org/2000/svg">
    <mask id="mask0_5452_14581" style="mask-type:alpha" maskUnits="userSpaceOnUse" x="0" y="0" width="20" height="20">
        <rect width="20" height="20" fill="#D9D9D9"/>
    </mask>
    <g mask="url(#mask0_5452_14581)">
        <path d="M17.4918 13.2442V8.33401L10.778 11.6859C10.5302 11.8135 10.2708 11.8782 9.99969 11.8798C9.72844 11.8815 9.47038 11.8169 9.22552 11.6859L2.3799 8.26547C2.22115 8.18616 2.10122 8.07957 2.0201 7.94568C1.93899 7.81165 1.89844 7.66401 1.89844 7.50276C1.89844 7.34165 1.93899 7.1929 2.0201 7.05651C2.10122 6.92012 2.22115 6.81227 2.3799 6.73297L9.22552 3.31755C9.34733 3.25214 9.47295 3.20304 9.6024 3.17026C9.7317 3.13748 9.86483 3.12109 10.0018 3.12109C10.1387 3.12109 10.2718 3.13748 10.4011 3.17026C10.5306 3.20304 10.6562 3.25214 10.778 3.31755L18.6699 7.25609C18.8114 7.3354 18.9262 7.43977 19.0143 7.56922C19.1022 7.69852 19.1461 7.84901 19.1461 8.02068V13.2492C19.1461 13.4816 19.0673 13.6771 18.9095 13.8359C18.7516 13.9946 18.5571 14.074 18.3259 14.074C18.0947 14.074 17.8979 13.9938 17.7355 13.8334C17.573 13.6731 17.4918 13.4767 17.4918 13.2442ZM9.22552 16.6809L5.3849 14.7705C5.09837 14.6256 4.86795 14.4148 4.69365 14.138C4.5192 13.8612 4.43198 13.5612 4.43198 13.238V11.0513L9.22552 13.448C9.4733 13.5757 9.73274 13.6396 10.0039 13.6396C10.2751 13.6396 10.5332 13.5757 10.778 13.448L15.5716 11.0513V13.238C15.5716 13.5612 15.4843 13.8612 15.3099 14.138C15.1356 14.4148 14.9052 14.6256 14.6186 14.7705L10.778 16.6809C10.6562 16.7463 10.5306 16.7946 10.4011 16.8257C10.2718 16.8568 10.1387 16.8723 10.0018 16.8723C9.86483 16.8723 9.7317 16.8568 9.6024 16.8257C9.47295 16.7946 9.34733 16.7463 9.22552 16.6809Z"
              fill="currentColor"/>
    </g>
</svg>
