<svg width="20" height="20" viewBox="0 0 20 20" fill="none" xmlns="http://www.w3.org/2000/svg">
<mask id="mask0_6084_57159" style="mask-type:alpha" maskUnits="userSpaceOnUse" x="0" y="0" width="20" height="20">
<rect width="20" height="20" fill="#D9D9D9"/>
</mask>
<g mask="url(#mask0_6084_57159)">
<path d="M15.6306 9.98706C15.6306 8.90567 15.3328 7.91789 14.7373 7.02373C14.1417 6.12956 13.3622 5.45623 12.3988 5.00373C12.1956 4.90789 12.0453 4.76123 11.9481 4.56373C11.8509 4.36623 11.8472 4.16533 11.9371 3.96102C12.0238 3.74269 12.1789 3.59019 12.4025 3.50352C12.6261 3.41685 12.8455 3.42088 13.0606 3.5156C14.331 4.09033 15.3394 4.96164 16.0858 6.12956C16.8321 7.29762 17.2052 8.58894 17.2052 10.0035C17.2052 11.4181 16.8321 12.705 16.0858 13.8644C15.3394 15.0235 14.331 15.8905 13.0606 16.4652C12.8455 16.5599 12.6261 16.5639 12.4025 16.4773C12.1789 16.3906 12.0238 16.2381 11.9371 16.0198C11.8472 15.8155 11.8509 15.6146 11.9481 15.4171C12.0453 15.2196 12.1956 15.0729 12.3988 14.9771C13.3622 14.5246 14.1417 13.8502 14.7373 12.9539C15.3328 12.0575 15.6306 11.0686 15.6306 9.98706ZM5.89646 12.1702H3.66146C3.41896 12.1702 3.21424 12.0867 3.04729 11.9198C2.88035 11.7527 2.79688 11.548 2.79688 11.3056V8.69602C2.79688 8.45366 2.88035 8.24894 3.04729 8.08185C3.21424 7.91491 3.41896 7.83144 3.66146 7.83144H5.89646L8.66042 5.06748C8.93306 4.7947 9.24625 4.7331 9.6 4.88269C9.95375 5.03227 10.1306 5.30074 10.1306 5.6881V14.3114C10.1306 14.6988 9.95375 14.9676 9.6 15.1179C9.24625 15.2682 8.93306 15.2069 8.66042 14.9341L5.89646 12.1702ZM13.7052 10.0008C13.7052 10.5214 13.5769 11.055 13.3204 11.6016C13.0638 12.1483 12.6996 12.5655 12.2279 12.8531C12.0929 12.9292 11.9597 12.9327 11.8281 12.8635C11.6965 12.7944 11.6306 12.6751 11.6306 12.5058V7.49581C11.6306 7.32651 11.6965 7.2081 11.8281 7.1406C11.9597 7.0731 12.0929 7.07741 12.2279 7.15352C12.6996 7.42727 13.0638 7.84012 13.3204 8.39206C13.5769 8.94401 13.7052 9.48026 13.7052 10.0008Z" fill="currentColor"/>
</g>
</svg>
