<svg width="20" height="20" viewBox="0 0 20 20" fill="none" xmlns="http://www.w3.org/2000/svg">
<mask id="mask0_6084_57164" style="mask-type:alpha" maskUnits="userSpaceOnUse" x="0" y="0" width="20" height="20">
<rect width="20" height="20" fill="#D9D9D9"/>
</mask>
<g mask="url(#mask0_6084_57164)">
<path d="M13.8098 16.0364C13.677 16.1203 13.5364 16.1989 13.3879 16.2722C13.2396 16.3455 13.0798 16.4189 12.9085 16.4924C12.7041 16.5791 12.4979 16.5783 12.29 16.4899C12.0819 16.4016 11.9432 16.2535 11.8737 16.0458C11.8076 15.8546 11.8147 15.6678 11.895 15.4853C11.9753 15.3028 12.1027 15.1633 12.2773 15.0666C12.3473 15.0316 12.4181 14.9966 12.4898 14.9616C12.5616 14.9266 12.6255 14.8985 12.6816 14.8774L10.1237 12.3253V14.3389C10.1237 14.7219 9.94685 14.9886 9.5931 15.1389C9.23935 15.2892 8.92615 15.2279 8.65351 14.9551L5.88956 12.1912H3.65456C3.41622 12.1912 3.21254 12.1067 3.04351 11.9376C2.87449 11.7685 2.78997 11.5648 2.78997 11.3266V8.717C2.78997 8.47881 2.87449 8.27513 3.04351 8.10596C3.21254 7.93693 3.41622 7.85242 3.65456 7.85242H5.67476L2.2456 4.37742C2.08282 4.21464 2.00226 4.02923 2.00393 3.82117C2.0056 3.61312 2.08782 3.4277 2.2506 3.26492C2.41324 3.10228 2.59858 3.0218 2.80664 3.02346C3.0147 3.02513 3.20011 3.10728 3.36289 3.26992L16.6206 16.6224C16.7832 16.7851 16.8646 16.9669 16.8646 17.168C16.8646 17.3692 16.7832 17.5511 16.6206 17.7139C16.4578 17.8765 16.2716 17.9578 16.0618 17.9578C15.8521 17.9578 15.6659 17.8765 15.5033 17.7139L13.8098 16.0364ZM15.6287 10.0218C15.6287 8.93124 15.3309 7.93888 14.7354 7.04471C14.1398 6.15055 13.3592 5.47957 12.3935 5.0318C12.1925 4.93124 12.0434 4.78221 11.9462 4.58471C11.849 4.38721 11.8453 4.18631 11.9352 3.982C12.0218 3.76367 12.1735 3.61117 12.3902 3.5245C12.6068 3.43784 12.8227 3.44478 13.0377 3.54534C14.291 4.11089 15.2987 4.97159 16.0606 6.12742C16.8224 7.28312 17.2033 8.5743 17.2033 10.001C17.2033 10.4454 17.1625 10.8804 17.0808 11.306C16.9991 11.7315 16.875 12.144 16.7083 12.5435C16.5939 12.8346 16.4353 13.0174 16.2327 13.0918C16.0299 13.1662 15.8332 13.1671 15.6427 13.0943C15.4521 13.0215 15.3023 12.8933 15.1933 12.7097C15.0841 12.5261 15.0782 12.3321 15.1754 12.1278C15.3215 11.8044 15.4328 11.4637 15.5091 11.106C15.5855 10.7482 15.6254 10.3868 15.6287 10.0218ZM12.221 7.16951C12.6721 7.46714 13.032 7.88263 13.3006 8.41596C13.5691 8.94943 13.7033 9.48471 13.7033 10.0218V10.2468C13.7033 10.3236 13.698 10.3917 13.6875 10.4512C13.663 10.6238 13.562 10.7378 13.3843 10.793C13.2067 10.8483 13.0471 10.8035 12.9054 10.6587L11.8827 9.63096C11.8034 9.55152 11.7404 9.46006 11.6937 9.35659C11.6471 9.25298 11.6237 9.13895 11.6237 9.0145V7.5068C11.6237 7.34416 11.6896 7.22825 11.8212 7.15909C11.9528 7.08992 12.086 7.09339 12.221 7.16951ZM8.32247 6.03575C8.24303 5.95645 8.20414 5.85291 8.20581 5.72513C8.20747 5.59735 8.24803 5.49381 8.32747 5.4145L8.65351 5.08846C8.92615 4.81569 9.23935 4.75443 9.5931 4.90471C9.94685 5.05499 10.1237 5.32166 10.1237 5.70471V6.81159C10.1237 7.00159 10.0314 7.1293 9.84664 7.19471C9.66206 7.26027 9.50595 7.22923 9.37831 7.10159L8.32247 6.03575Z" fill="currentColor"/>
</g>
</svg>
